G04 ================== begin FILE IDENTIFICATION RECORD ==================*
G04 Layout Name:  D:/Data/Hardware/KB_V15/KB_V15.brd*
G04 Film Name:    BOTTOM*
G04 File Format:  Gerber RS274X*
G04 File Origin:  Cadence Allegro 16.6-P004*
G04 Origin Date:  Tue Nov 06 11:12:27 2018*
G04 *
G04 Layer:  VIA CLASS/BOTTOM*
G04 Layer:  PIN/BOTTOM*
G04 Layer:  ETCH/BOTTOM*
G04 *
G04 Offset:    (0.0000 0.0000)*
G04 Mirror:    No*
G04 Mode:      Positive*
G04 Rotation:  0*
G04 FullContactRelief:  No*
G04 UndefLineWidth:     0.1524*
G04 ================== end FILE IDENTIFICATION RECORD ====================*
%FSLAX55Y55*MOMM*%
%IR0*IPPOS*OFA0.00000B0.00000*MIA0B0*SFA1.00000B1.00000*%
%ADD26R,.8X1.*%
%ADD28R,.7X1.8*%
%ADD12C,.6*%
%ADD24C,.8*%
%ADD25R,.3556X1.016*%
%ADD23R,.254X1.397*%
%ADD10R,1.397X.254*%
%ADD11R,.76X.76*%
%ADD21O,1.X1.6*%
%ADD19R,.5X.3*%
%ADD30O,1.8X3.5*%
%ADD29R,1.64X2.2*%
%ADD17C,3.*%
%ADD20R,.3X.9*%
%ADD14R,.8X.6*%
%ADD18R,2.5X2.55*%
%ADD22O,.95X.6*%
%ADD13R,1.27X1.651*%
%ADD27R,1.27X1.27*%
%ADD16C,1.7018*%
%ADD15C,3.9878*%
%ADD31C,.2*%
%ADD32C,.3*%
%ADD33C,.5*%
%ADD38C,1.1204*%
%ADD35C,2.0222*%
%ADD34R,1.1604X1.1604*%
%ADD36C,3.3204*%
%ADD37C,4.3082*%
G75*
%LPD*%
G75*
G36*
G01X6395000Y-12615000D02*
Y-6102000D01*
G02X6468460Y-5918070I266993J0D01*
G02X6485980Y-5925070I7361J-7002D01*
G01Y-5952000D01*
G03X6626020I70020J0D01*
G01Y-5892000D01*
G03X6614600Y-5853680I-70019J-5D01*
G02X6621570Y-5838080I8506J5557D01*
G02X6662000Y-5835000I40438J-263919D01*
G01X7388920D01*
G02X7397170Y-5851090I3J-10159D01*
G03X7383980Y-5892000I56832J-40905D01*
G01Y-5952000D01*
G03X7524020I70020J0D01*
G01Y-5892000D01*
G03X7510830Y-5851090I-70022J5D01*
G02X7519080Y-5835000I8247J5931D01*
G01X8876000D01*
Y-6209980D01*
X8695980D01*
Y-6470020D01*
X8876000D01*
Y-6716480D01*
X8730230D01*
Y-6961390D01*
X8655640Y-7035980D01*
X8532890D01*
X8118160Y-7450710D01*
X8014940D01*
Y-7380160D01*
X7855900D01*
Y-7577300D01*
X8014940D01*
Y-7506750D01*
X8141380D01*
X8218560Y-7429570D01*
G02X8235900Y-7436750I7181J-7186D01*
G01Y-7577300D01*
X8394940D01*
Y-7536750D01*
X8411760D01*
G03Y-7480710I36510J28020D01*
G01X8394940D01*
Y-7380160D01*
X8292490D01*
G02X8285310Y-7362820I6J10159D01*
G01X8556110Y-7092020D01*
X8678860D01*
X8767360Y-7003520D01*
X9012270D01*
Y-6707000D01*
X10254000D01*
Y-6470020D01*
X10434020D01*
Y-6209980D01*
X10254000D01*
Y-5835000D01*
X15098000D01*
Y-12615000D01*
X6395000D01*
G37*
%LPC*%
G75*
G36*
G01X7594770Y-6970480D02*
Y-7257520D01*
X7312730D01*
Y-7175020D01*
X7301580D01*
X7300060Y-7176810D01*
G02Y-7117190I-35060J29810D01*
G01X7301580Y-7118980D01*
X7312730D01*
Y-6970480D01*
X7594770D01*
G37*
G36*
G01X12774940Y-7250160D02*
Y-7447300D01*
X12615900D01*
Y-7376750D01*
X12499120D01*
X12110730Y-6988360D01*
Y-6483520D01*
X11997730D01*
Y-6196480D01*
X12279770D01*
Y-6483520D01*
X12166770D01*
Y-6965140D01*
X12522340Y-7320710D01*
X12615900D01*
Y-7250160D01*
X12774940D01*
G37*
G36*
G01X11214940Y-7563340D02*
Y-7607300D01*
X11055900D01*
Y-7410160D01*
X11214940D01*
Y-7454120D01*
G03X11227480Y-7463990I10159J6D01*
G02Y-7553470I10790J-44740D01*
G03X11214940Y-7563340I-2381J-9876D01*
G37*
G36*
G01X10834940Y-7410160D02*
Y-7607300D01*
X10675900D01*
Y-7410160D01*
X10727400D01*
Y-7393970D01*
X10955390Y-7165980D01*
X11375640D01*
X11580230Y-6961390D01*
Y-6716480D01*
X11862270D01*
Y-7003520D01*
X11617360D01*
X11398860Y-7222020D01*
X10978610D01*
X10807810Y-7392820D01*
G03X10814990Y-7410160I7186J-7181D01*
G01X10834940D01*
G37*
G36*
G01X8234780Y-7842480D02*
Y-8129520D01*
X7952740D01*
Y-7884610D01*
X7871150Y-7803020D01*
X7539510D01*
G02Y-7746980I-36510J28020D01*
G01X7894370D01*
X7989870Y-7842480D01*
X8234780D01*
G37*
G36*
G01X13458170Y-8016280D02*
G03X13475420Y-8007760I7180J7186D01*
G02X13618250Y-8150590I164590J21760D01*
G03X13609730Y-8167840I-1334J-10070D01*
G01X13690020Y-8248130D01*
Y-9232220D01*
G02X13658290Y-9314600I-28018J-36509D01*
G01X13655950Y-9314410D01*
X13653610Y-9316750D01*
X13620940D01*
Y-9387300D01*
X13461900D01*
Y-9190160D01*
X13620940D01*
Y-9232440D01*
G03X13629600Y-9236050I5080J-5D01*
G02X13633980Y-9232220I32423J-32660D01*
G01Y-8271350D01*
X13047400Y-7684770D01*
Y-7553480D01*
X13043950Y-7552310D01*
G02X13030710Y-7472220I14779J43583D01*
G01Y-7447300D01*
X12995900D01*
Y-7250160D01*
X13154940D01*
Y-7447300D01*
X13103440D01*
Y-7497810D01*
X13103570Y-7498380D01*
G02Y-7519080I-44840J-10350D01*
G01X13103440Y-7519650D01*
Y-7661550D01*
X13458170Y-8016280D01*
G37*
G36*
G01X13240940Y-9190160D02*
Y-9387300D01*
X13081900D01*
Y-9316750D01*
X13043120D01*
X12585740Y-8859370D01*
Y-8383520D01*
X12472740D01*
Y-8096480D01*
X12754780D01*
Y-8383520D01*
X12641780D01*
Y-8836150D01*
X13066340Y-9260710D01*
X13081900D01*
Y-9190160D01*
X13240940D01*
G37*
G36*
G01X11641940Y-9296750D02*
Y-9420300D01*
X11482900D01*
Y-9223160D01*
X11641940D01*
Y-9240710D01*
X11656150D01*
X11657670Y-9238920D01*
G02Y-9298540I35060J-29810D01*
G01X11656150Y-9296750D01*
X11641940D01*
G37*
G36*
G01X11261940Y-9223160D02*
Y-9420300D01*
X11102900D01*
Y-9239530D01*
X10685740Y-8822370D01*
Y-8383520D01*
X10572740D01*
Y-8096480D01*
X10854780D01*
Y-8383520D01*
X10741780D01*
Y-8799150D01*
X11165790Y-9223160D01*
X11261940D01*
G37*
G36*
G01X10211940Y-9317650D02*
Y-9422300D01*
X10052900D01*
Y-9225160D01*
X10211940D01*
Y-9229470D01*
G03X10220270Y-9233370I5078J1D01*
G02X10227100Y-9308800I29459J-35357D01*
G03X10211940Y-9317650I-5000J-8845D01*
G37*
G36*
G01X9831940Y-9225160D02*
Y-9422300D01*
X9672900D01*
Y-9225160D01*
X9724400D01*
Y-9050030D01*
X9165450Y-8491080D01*
G03X9148110Y-8498420I-7183J-7182D01*
G02X9047910Y-8398890I-101100J-1578D01*
G03X9055180Y-8381550I88J10157D01*
G01X8972120Y-8298490D01*
G03X8954780Y-8305670I-7181J-7186D01*
G01Y-8383520D01*
X8672740D01*
Y-8096480D01*
X8954780D01*
Y-8211980D01*
X8964870D01*
X9023170Y-8270280D01*
G03X9040420Y-8261760I7180J7186D01*
G02X9184050Y-8404690I164588J21762D01*
G03X9175580Y-8421950I-1285J-10078D01*
G01X9334700Y-8581080D01*
G03X9351490Y-8570560I7191J7182D01*
G02X9484450Y-8703520I203520J70560D01*
G03X9473930Y-8720310I-3338J-9599D01*
G01X9780440Y-9026810D01*
Y-9225160D01*
X9831940D01*
G37*
G36*
G01X8353020Y-9472910D02*
Y-9541020D01*
X8244980D01*
Y-9432980D01*
X8288980D01*
Y-8129400D01*
X8502480Y-7915900D01*
Y-7899020D01*
G02X8576490Y-7864300I28022J36508D01*
G03X8587790Y-7874790I10152J-396D01*
G02X8589290Y-7966380I5217J-45722D01*
G01X8586950Y-7966190D01*
X8383020Y-8170120D01*
Y-9411390D01*
X8404610Y-9432980D01*
X8473020D01*
Y-9541020D01*
X8364980D01*
Y-9472610D01*
X8361690Y-9469320D01*
G03X8353020Y-9472910I-3591J-3592D01*
G37*
G36*
G01X14146020Y-8129520D02*
Y-9505490D01*
G02X14089980I-28020J-36510D01*
G01Y-8129520D01*
X13890240D01*
Y-7842480D01*
X14172280D01*
Y-8129520D01*
X14146020D01*
G37*
G36*
G01X12159280D02*
Y-9613450D01*
X12159450Y-9614090D01*
G02X12099830Y-9582550I-44452J-11909D01*
G01X12103240Y-9581360D01*
Y-8129520D01*
X11990240D01*
Y-7842480D01*
X12272280D01*
Y-8129520D01*
X12159280D01*
G37*
G36*
G01X10444770Y-7215390D02*
X10500020Y-7270640D01*
Y-10932490D01*
G02X10443980I-28020J-36510D01*
G01Y-7293860D01*
X10407640Y-7257520D01*
X10162730D01*
Y-6970480D01*
X10444770D01*
Y-7215390D01*
G37*
G36*
G01X14637020Y-7127140D02*
Y-11137950D01*
G02X14580980Y-11130150I-33024J-32050D01*
G01Y-7150360D01*
X13660140Y-6229520D01*
X13415230D01*
Y-5942480D01*
X13697270D01*
Y-6187390D01*
X14637020Y-7127140D01*
G37*
G36*
G01X7305940Y-9446300D02*
X7177020D01*
Y-11157490D01*
G02X7120980I-28020J-36510D01*
G01Y-9413540D01*
X7146900Y-9387620D01*
Y-9249160D01*
X7285360D01*
X7293810Y-9240710D01*
X7335220D01*
G02Y-9296750I36510J-28020D01*
G01X7317030D01*
X7305940Y-9307840D01*
Y-9446300D01*
G37*
G36*
G01X9342610Y-11777020D02*
X9318740Y-11800890D01*
G02X9250690Y-11791440I-38237J-25609D01*
G01X9252480Y-11789920D01*
Y-11787890D01*
X9302980Y-11737390D01*
Y-11668980D01*
X9328980D01*
Y-11614390D01*
X9426390Y-11516980D01*
X9941390D01*
X10250080Y-11208290D01*
Y-9760610D01*
G02X10306120I28020J36510D01*
G01Y-11231510D01*
X9964610Y-11573020D01*
X9449610D01*
X9385020Y-11637610D01*
Y-11668980D01*
X9411020D01*
Y-11777020D01*
X9342610D01*
G37*
G36*
G01X7098610Y-11457020D02*
X7050020Y-11505610D01*
Y-12005490D01*
G02X6993980I-28020J-36510D01*
G01Y-11482390D01*
X7075390Y-11400980D01*
X7162980D01*
Y-11374980D01*
X7271020D01*
Y-11483020D01*
X7162980D01*
Y-11457020D01*
X7098610D01*
G37*
G36*
G01X7141870Y-11873490D02*
G02X7085830I-28020J-36510D01*
G01Y-11556390D01*
X7122240Y-11519980D01*
X7162980D01*
Y-11493980D01*
X7271020D01*
Y-11602020D01*
X7270020D01*
Y-11720020D01*
X7244020D01*
Y-11811490D01*
G02X7187980I-28020J-36510D01*
G01Y-11720020D01*
X7161980D01*
Y-11611980D01*
X7162980D01*
Y-11576020D01*
X7145460D01*
X7141870Y-11579610D01*
Y-11873490D01*
G37*
G36*
G01X7077020Y-11087490D02*
G02X7020980I-28020J-36510D01*
G01Y-11077340D01*
G03X7006690Y-11068050I-10161J6D01*
G02X6959980Y-10989490I-18691J42053D01*
G01Y-8603390D01*
X6970340Y-8593040D01*
X6964010Y-8585170D01*
G02X6886870Y-8598540I-54491J85171D01*
G03X6874440Y-8608450I-2269J-9904D01*
G01Y-9249160D01*
X6925940D01*
Y-9446300D01*
X6766900D01*
Y-9249160D01*
X6818400D01*
Y-8608470D01*
X6648240Y-8438310D01*
Y-8383520D01*
X6535240D01*
Y-8096480D01*
X6817280D01*
Y-8383520D01*
X6704280D01*
Y-8415090D01*
X6791180Y-8501990D01*
G03X6808510Y-8495280I7182J7184D01*
G02X6907020Y-8398920I101000J-4720D01*
G03X6913950Y-8381580I-252J10155D01*
G01X6831980Y-8299610D01*
Y-8055610D01*
X6714980Y-7938610D01*
Y-7183510D01*
G02X6771020I28020J36510D01*
G01Y-7915390D01*
X6888020Y-8032390D01*
Y-8276390D01*
X6898340Y-8286720D01*
G03X6906850Y-8281840I3594J3593D01*
G02X7231130Y-8268140I160662J41839D01*
G03X7248320Y-8277050I10011J-1724D01*
G01X7314320Y-8211050D01*
X7314130Y-8208710D01*
G02X7356290Y-8250870I45870J3710D01*
G01X7353950Y-8250680D01*
X7317310Y-8287320D01*
G03X7328680Y-8303760I7184J-7183D01*
G02X7221270Y-8411170I88830J-196240D01*
G03X7204830Y-8399800I-9257J4186D01*
G01X7088620Y-8516010D01*
Y-8607760D01*
X7077020Y-8619360D01*
Y-11087490D01*
G37*
G36*
G01X9842020Y-10614020D02*
X9725980D01*
Y-10497980D01*
X9732980D01*
Y-10354980D01*
X9853020D01*
Y-10495020D01*
X9842020D01*
Y-10614020D01*
G37*
G36*
G01X8027020Y-12316950D02*
G02X7960980I-33020J-32050D01*
G01Y-11090020D01*
X7939980D01*
Y-10981980D01*
X7960980D01*
Y-10880320D01*
X8036790Y-10804510D01*
X8142860D01*
Y-10718940D01*
G02Y-10652940I32080J33000D01*
G01Y-10168950D01*
X8114170D01*
Y-10218670D01*
X8110170D01*
Y-10714670D01*
X7938430D01*
Y-10513970D01*
X7666020D01*
Y-11385610D01*
X7400020Y-11651610D01*
Y-11720020D01*
X7291980D01*
Y-11611980D01*
X7292980D01*
Y-11493980D01*
X7366140D01*
X7368430Y-11491690D01*
G03X7364840Y-11483020I-3592J3591D01*
G01X7292980D01*
Y-11374980D01*
X7401020D01*
Y-11380830D01*
G03X7418360Y-11388010I10159J6D01*
G01X7533980Y-11272390D01*
Y-10452390D01*
X7588010Y-10398360D01*
G03X7580830Y-10381020I-7186J7181D01*
G01X7521980D01*
Y-10368020D01*
X7457330D01*
X7351980Y-10262670D01*
Y-9619320D01*
X7678480Y-9292820D01*
Y-8419070D01*
X6898980Y-7639570D01*
Y-6742760D01*
G02X6873470Y-6685480I18021J42346D01*
G03X6863860Y-6672020I-9609J3300D01*
G01X6838980D01*
Y-6667520D01*
G03X6821640Y-6660340I-10159J-6D01*
G01X6731960Y-6750020D01*
X6604040D01*
X6447980Y-6593960D01*
Y-6271320D01*
X6575320Y-6143980D01*
X7162610D01*
X7232950Y-6214320D01*
X7235290Y-6214130D01*
G02X7263550Y-6221070I3717J-45871D01*
G01X7367640Y-6116980D01*
X7583600D01*
X7832020Y-6365400D01*
Y-6657640D01*
X8160020Y-6985640D01*
Y-7156490D01*
G02X8087420Y-7181590I-28017J-36509D01*
G03X8076930Y-7168930I-9842J2521D01*
G02X8062200Y-7078520I-2933J45927D01*
G01X8065980Y-7077520D01*
Y-7024610D01*
X7737980Y-6696610D01*
Y-6404370D01*
X7544630Y-6211020D01*
X7406610D01*
X7325020Y-6292610D01*
Y-6295640D01*
X7287530Y-6333130D01*
X7288550Y-6336130D01*
G02X7290010Y-6360590I-43550J-14873D01*
G03X7297420Y-6372550I9937J-2119D01*
G02X7334470Y-6428400I-12419J-48453D01*
G03X7345060Y-6440040I10047J-1497D01*
G02X7347500Y-6439980I2351J-45962D01*
G01X7347840D01*
G03X7356730Y-6424900I3J10159D01*
G02X7347980Y-6391000I61272J33894D01*
G01Y-6331000D01*
G02X7488020I70020J0D01*
G01Y-6391000D01*
G02X7433790Y-6459220I-70025J0D01*
G03X7426390Y-6472170I2290J-9898D01*
G02X7382500Y-6532020I-43890J-13832D01*
G01X7347500D01*
G02X7329220Y-6528230I8J46018D01*
G03X7315020Y-6537560I-4039J-9323D01*
G01Y-6609980D01*
X7384020D01*
Y-6672020D01*
X7301980D01*
Y-6607020D01*
X7244980D01*
Y-6603020D01*
X7171020D01*
Y-6672020D01*
X7090040D01*
X7089280Y-6676200D01*
G02X7026940Y-6710740I-45282J8200D01*
G03X7013020Y-6720180I-3760J-9439D01*
G01Y-7592320D01*
X7792520Y-8371820D01*
Y-9340180D01*
X7466020Y-9666680D01*
Y-10015320D01*
X7501680Y-10050980D01*
X7522980D01*
Y-10029980D01*
X7639980D01*
Y-10021980D01*
X7756020D01*
Y-10112370D01*
G03X7773380Y-10119540I10160J-1D01*
G02X7848560Y-10169510I32621J-32461D01*
G01X7847270Y-10172640D01*
X7882540Y-10207910D01*
X7934430D01*
Y-10153230D01*
X7938430D01*
Y-10107210D01*
X7991280D01*
Y-10008980D01*
X7965320Y-9983020D01*
X7752020D01*
Y-10004020D01*
X7643980D01*
Y-9983020D01*
X7631020D01*
Y-10008020D01*
X7522980D01*
Y-9899980D01*
X7631020D01*
Y-9916980D01*
X7643980D01*
Y-9895980D01*
X7664980D01*
Y-9814410D01*
G02X7731220Y-9786750I22021J40410D01*
G01X7731020Y-9787440D01*
Y-9895980D01*
X7752020D01*
Y-9916980D01*
X7992680D01*
X8057320Y-9981620D01*
Y-10102910D01*
X8639840D01*
X8651190Y-10091560D01*
G03X8644010Y-10074220I-7186J7181D01*
G01X8643160D01*
Y-10070220D01*
X8147160D01*
Y-9968790D01*
X8076050Y-9897680D01*
X8073710Y-9897870D01*
G02X8115870Y-9855710I-3710J45870D01*
G01X8115680Y-9858050D01*
X8156110Y-9898480D01*
X8347860D01*
Y-9844220D01*
X8343400Y-9843680D01*
G02X8353160Y-9752170I5596J45679D01*
G03X8361260Y-9734870I914J10118D01*
G01X8297410Y-9671020D01*
X8244980D01*
Y-9562980D01*
X8353020D01*
Y-9647370D01*
X8356310Y-9650660D01*
G03X8364980Y-9647070I3591J3592D01*
G01Y-9562980D01*
X8473020D01*
Y-9671020D01*
X8447020D01*
Y-9687620D01*
X8467530Y-9708130D01*
G03X8483970Y-9705140I7186J7182D01*
G02X8551230Y-9685680I41931J-18961D01*
G03X8566980Y-9677190I5590J8484D01*
G01Y-9662510D01*
G02X8623730Y-9590050I28019J36509D01*
G01X8625120Y-9591160D01*
X8631980D01*
Y-9578580D01*
X8630190Y-9577060D01*
G02X8688020Y-9578510I29812J35059D01*
G01Y-9723980D01*
X8798020D01*
Y-9795020D01*
G03X8806690Y-9798610I5079J2D01*
G01X8815980Y-9789320D01*
Y-9727980D01*
X8842380D01*
Y-9428020D01*
X8748320D01*
X8653980Y-9333680D01*
Y-9294020D01*
X8632980D01*
Y-9185980D01*
X8651980D01*
Y-9164820D01*
X8651200D01*
Y-9031180D01*
X8686710D01*
G03X8693890Y-9013840I-6J10159D01*
G01X8654870Y-8974820D01*
X8651200D01*
Y-8841180D01*
X8651980D01*
Y-8793020D01*
X8631980D01*
Y-8745820D01*
X8573980Y-8687820D01*
Y-8053180D01*
X8735980Y-7891180D01*
Y-7798020D01*
X8730980D01*
Y-7689980D01*
X8741980D01*
Y-7666520D01*
X8592480D01*
Y-7499480D01*
X8759520D01*
Y-7614110D01*
G03X8776860Y-7621300I10160J-3D01*
G01X8796480Y-7601680D01*
Y-7503480D01*
X8894680D01*
X9221980Y-7176180D01*
Y-7045370D01*
X9221680Y-7044540D01*
G02Y-7013460I43320J15540D01*
G01X9221980Y-7012630D01*
Y-6936020D01*
X9113980D01*
Y-6723980D01*
X9809980D01*
Y-6719980D01*
X9920020D01*
Y-6723980D01*
X10016020D01*
Y-6936020D01*
X9993020D01*
Y-6941610D01*
X9811610Y-7123020D01*
X9802360D01*
X9787360Y-7138020D01*
X9707610D01*
X9704020Y-7141610D01*
Y-7826000D01*
G02X9720490Y-7850740I-28021J-36507D01*
G03X9736640Y-7856090I9822J2599D01*
G02X9973640Y-7887490I103368J-129911D01*
G03X9991980Y-7881460I8179J6030D01*
G01Y-7857000D01*
X9988200Y-7856000D01*
G02X9971980Y-7775010I11799J44482D01*
G03X9974150Y-7761180I-6188J8056D01*
G02X10057870Y-7738710I37849J26179D01*
G01X10057680Y-7741050D01*
X10086020Y-7769390D01*
Y-7842480D01*
X10372280D01*
Y-8087390D01*
X10391020Y-8106130D01*
Y-9761490D01*
G02X10334980I-28020J-36510D01*
G01Y-8129520D01*
X10090010D01*
G03X10072900Y-8124490I-9928J-2155D01*
G01X10047370Y-8150020D01*
X10047360D01*
X9956020Y-8241360D01*
Y-8445180D01*
G03X9975020Y-8450190I10160J-3D01*
G02Y-8549810I87990J-49810D01*
G03X9956020Y-8554820I-8840J-5007D01*
G01Y-9826640D01*
X10144020Y-10014640D01*
Y-10928360D01*
X9992360Y-11080020D01*
X9494610D01*
X9418020Y-11156610D01*
Y-11187020D01*
X9309980D01*
Y-11078980D01*
X9416390D01*
X9420680Y-11074690D01*
G03X9417090Y-11066020I-3592J3591D01*
G01X9308980D01*
Y-10957980D01*
X9417020D01*
Y-10983980D01*
X9955390D01*
X10049980Y-10889390D01*
Y-10053610D01*
X9861980Y-9865610D01*
Y-8202390D01*
X9904640Y-8159740D01*
G03X9894140Y-8142950I-7183J7186D01*
G02X9686590Y-7922560I-54129J156948D01*
G03X9676980Y-7908520I-9389J3883D01*
G02X9667500Y-7907740I-986J46010D01*
G03X9655470Y-7918230I-1882J-9984D01*
G02X9589980Y-7878840I-45962J-2280D01*
G01Y-7812080D01*
X9609980Y-7792080D01*
Y-7102640D01*
X9668640Y-7043980D01*
X9748390D01*
X9751980Y-7040390D01*
Y-6936020D01*
X9308020D01*
Y-7012630D01*
X9308320Y-7013460D01*
G02Y-7044540I-43320J-15540D01*
G01X9308020Y-7045370D01*
Y-7211820D01*
X8955520Y-7564320D01*
Y-7662520D01*
X8857320D01*
X8836120Y-7683720D01*
X8838720Y-7689980D01*
X8839020D01*
Y-7798020D01*
X8822020D01*
Y-7926820D01*
X8660020Y-8088820D01*
Y-8652180D01*
X8692820Y-8684980D01*
X8740020D01*
Y-8793020D01*
X8718020D01*
Y-8841180D01*
X8718800D01*
Y-8945350D01*
X8732230Y-8958780D01*
X8769510D01*
X8781200Y-8947090D01*
Y-8934660D01*
X8780230Y-8933330D01*
G02X8781200Y-8881390I34771J25330D01*
G01Y-8841180D01*
X8848800D01*
Y-8864980D01*
X8973200D01*
Y-8845180D01*
X8973980D01*
Y-8790020D01*
X8952980D01*
Y-8681980D01*
X9061020D01*
Y-8790020D01*
X9040020D01*
Y-8845180D01*
X9040800D01*
Y-8885390D01*
G02X9041770Y-8937330I-33801J-26610D01*
G01X9040800Y-8938660D01*
Y-8949350D01*
X9054230Y-8962780D01*
X9089770D01*
X9103200Y-8949350D01*
Y-8845180D01*
X9170800D01*
Y-8978820D01*
X9167130D01*
X9128110Y-9017840D01*
G03X9135290Y-9035180I7186J-7181D01*
G01X9170800D01*
Y-9177980D01*
X9212020D01*
Y-9294020D01*
X9095980D01*
Y-9177980D01*
X9103200D01*
Y-9028820D01*
X9040800D01*
Y-9168820D01*
X9040020D01*
Y-9181980D01*
X9078020D01*
Y-9290020D01*
X9057020D01*
Y-9362980D01*
X9371680D01*
X9421020Y-9412320D01*
Y-9672980D01*
X9442020D01*
Y-9790980D01*
X9445020D01*
Y-9907020D01*
X9328980D01*
Y-9790980D01*
X9333980D01*
Y-9672980D01*
X9354980D01*
Y-9439680D01*
X9344320Y-9429020D01*
X9011320D01*
X9010320Y-9428020D01*
X8908420D01*
Y-9727980D01*
X8924020D01*
Y-9836020D01*
X8862680D01*
X8758920Y-9939780D01*
Y-10077230D01*
X8667200Y-10168950D01*
X8208900D01*
Y-10654880D01*
G02Y-10717000I-33960J-31060D01*
G01Y-10747660D01*
X8258620D01*
Y-10751660D01*
X8754620D01*
Y-10809510D01*
X8828140D01*
X8832120Y-10813490D01*
G03X8849460Y-10806310I7181J7186D01*
G01Y-10714670D01*
X8791610D01*
Y-10518670D01*
X8787610D01*
Y-10453230D01*
X8791610D01*
Y-10107210D01*
X8963350D01*
Y-10157930D01*
X9084440D01*
X9228980Y-10013390D01*
Y-9903020D01*
X9202980D01*
Y-9794980D01*
X9229980D01*
Y-9781020D01*
X9203980D01*
Y-9672980D01*
X9312020D01*
Y-9781020D01*
X9286020D01*
Y-9794980D01*
X9311020D01*
Y-9903020D01*
X9285020D01*
Y-10036610D01*
X9107660Y-10213970D01*
X8963350D01*
Y-10307910D01*
X9106410D01*
X9171340Y-10242980D01*
X9409360D01*
X9470360Y-10303980D01*
X9665390D01*
X9677010Y-10292360D01*
G03X9669830Y-10275020I-7186J7181D01*
G01X9562980D01*
Y-10134980D01*
X9683020D01*
Y-10261830D01*
G03X9700360Y-10269010I10159J6D01*
G01X9736980Y-10232390D01*
Y-10138980D01*
X9765980D01*
Y-10116020D01*
X9739980D01*
Y-10007980D01*
X9848020D01*
Y-10116020D01*
X9822020D01*
Y-10138980D01*
X9849020D01*
Y-10271020D01*
X9777610D01*
X9688610Y-10360020D01*
X9679020D01*
Y-10441390D01*
X9682020Y-10444390D01*
Y-10501980D01*
X9708020D01*
Y-10610020D01*
X9599980D01*
Y-10563020D01*
X9532020D01*
Y-10589020D01*
X9423980D01*
Y-10480980D01*
X9532020D01*
Y-10506980D01*
X9599980D01*
Y-10501980D01*
X9625980D01*
Y-10491020D01*
X9566980D01*
Y-10360020D01*
X9532020D01*
Y-10459020D01*
X9423980D01*
Y-10390610D01*
X9415690Y-10382320D01*
G03X9407020Y-10385910I-3591J-3592D01*
G01Y-10453290D01*
X9298980D01*
Y-10428750D01*
X9287020D01*
Y-10454750D01*
X9218610D01*
X9209320Y-10464040D01*
G03X9212910Y-10472710I3592J-3591D01*
G01X9291020D01*
Y-10475250D01*
X9407020D01*
Y-10583290D01*
X9386020D01*
Y-10630980D01*
X9411290D01*
Y-10652920D01*
X9419830D01*
X9421270Y-10651630D01*
G02Y-10720250I30670J-34310D01*
G01X9419830Y-10718960D01*
X9411290D01*
Y-10746980D01*
X9416750D01*
Y-10863020D01*
X9300710D01*
Y-10746980D01*
X9303250D01*
Y-10630980D01*
X9319980D01*
Y-10583290D01*
X9291020D01*
Y-10588750D01*
X9229900D01*
G03X9222720Y-10606090I6J-10159D01*
G01X9247610Y-10630980D01*
X9281290D01*
Y-10739020D01*
X9256750D01*
Y-10750980D01*
X9282750D01*
Y-10859020D01*
X9174710D01*
Y-10750980D01*
X9200710D01*
Y-10739020D01*
X9173250D01*
Y-10635880D01*
X9098390Y-10561020D01*
X8963350D01*
Y-10714670D01*
X8905500D01*
Y-10833120D01*
X9117360Y-11044980D01*
X9160390D01*
X9178980Y-11026390D01*
Y-10957980D01*
X9287020D01*
Y-11066020D01*
X9218610D01*
X9214320Y-11070310D01*
G03X9217910Y-11078980I3592J-3591D01*
G01X9288020D01*
Y-11187020D01*
X9179980D01*
Y-11139020D01*
X9078390D01*
X8804920Y-10865550D01*
X8754620D01*
Y-10923400D01*
X8703900D01*
Y-10994610D01*
G02X8659640Y-11074180I-28016J-36511D01*
G03X8645900Y-11083690I-3581J-9508D01*
G01Y-11086400D01*
X8647690Y-11087920D01*
G02X8613150Y-11168760I-29809J-35063D01*
G03X8602320Y-11181600I-1048J-10104D01*
G02X8528190Y-11158940I-44319J-12400D01*
G01X8529980Y-11157420D01*
Y-11146680D01*
X8522140D01*
X8520640Y-11149000D01*
G02X8479070Y-11169930I-38640J24999D01*
G03X8468580Y-11182590I-648J-10139D01*
G02X8395980Y-11157490I-44583J-11409D01*
G01Y-11088360D01*
X8447860Y-11036480D01*
Y-10923400D01*
X8303900D01*
Y-10980980D01*
X8311290D01*
Y-11089020D01*
X8203250D01*
Y-10980980D01*
X8247860D01*
Y-10927400D01*
X8193180D01*
Y-10923400D01*
X8147160D01*
Y-10870550D01*
X8064150D01*
X8027020Y-10907680D01*
Y-10981980D01*
X8048020D01*
Y-11090020D01*
X8027020D01*
Y-12316950D01*
G37*
G54D38*
X9363000Y-12177000D03*
X9533000D03*
G54D35*
X7925510Y-8500000D03*
X7622000Y-6600000D03*
X8638000D03*
X11963010Y-8500000D03*
X10947010D03*
X10472000Y-6600000D03*
X11488000D03*
X12847010Y-8500000D03*
X13863010D03*
X13388000Y-6600000D03*
X12372000D03*
G54D34*
X7864000Y-11036000D03*
X8127270Y-11035000D03*
X9487000Y-11723000D03*
X9664000Y-10062000D03*
X8655000Y-7744000D03*
G54D36*
X7702510Y-7986000D03*
X7845000Y-7114000D03*
X8480000Y-6860000D03*
X11105010Y-8240000D03*
X11740010Y-7986000D03*
X11330000Y-6860000D03*
X10695000Y-7114000D03*
X13005010Y-8240000D03*
X12530000Y-6340000D03*
X13165000Y-6086000D03*
G54D37*
X8130000Y-6600000D03*
X11455010Y-8500000D03*
X10980000Y-6600000D03*
X13355010Y-8500000D03*
X12880000Y-6600000D03*
%LPD*%
G75*
G36*
G01X7401020Y-11546830D02*
Y-11538360D01*
X7592640Y-11346740D01*
G02X7609980Y-11353920I7181J-7186D01*
G01Y-11362390D01*
X7418360Y-11554010D01*
G02X7401020Y-11546830I-7181J7186D01*
G37*
G36*
G01X7634020Y-10370980D02*
Y-10188980D01*
X7611020D01*
Y-10138020D01*
X7749950D01*
G02X7760090Y-10148870I3J-10161D01*
G03X7765560Y-10173970I45912J-3140D01*
G02X7756640Y-10188980I-8926J-4851D01*
G01X7701980D01*
Y-10370980D01*
X7634020D01*
G37*
G36*
G01X7484690Y-10301980D02*
X7418020Y-10235310D01*
Y-10085240D01*
G02X7435360Y-10078060I10159J-6D01*
G01X7474320Y-10117020D01*
X7522980D01*
Y-10138020D01*
X7544980D01*
Y-10188980D01*
X7521980D01*
Y-10301980D01*
X7484690D01*
G37*
G36*
G01X6626980Y-6615430D02*
G02X6609640Y-6622610I-10159J6D01*
G01X6542020Y-6554990D01*
Y-6460590D01*
G02X6557230Y-6451770I10162J1D01*
G03X6588720Y-6460940I34777J60770D01*
G02X6598070Y-6473670I-476J-10149D01*
G03X6677930Y-6521640I46929J-12334D01*
G02X6694980Y-6529100I6892J-7463D01*
G01Y-6609980D01*
X6626980D01*
Y-6615430D01*
G37*
G36*
G01X6765020Y-6480980D02*
Y-6476980D01*
X6757010D01*
G02X6750430Y-6459080I3J10160D01*
G03X6766450Y-6408560I-32429J38083D01*
G02X6774250Y-6396080I9840J2527D01*
G03X6797770Y-6383310I-9249J45081D01*
G02X6812230I7230J-7138D01*
G03X6828340Y-6393900I32773J32308D01*
G02X6834310Y-6406560I-3678J-9472D01*
G03X6846980Y-6454990I43692J-14442D01*
G01Y-6480980D01*
X6765020D01*
G37*
G36*
G01X6661270Y-6401210D02*
G03X6662020Y-6391000I-69269J10221D01*
G01Y-6331000D01*
G03X6610380Y-6263430I-70027J0D01*
G02X6605860Y-6246450I2665J9801D01*
G01X6614290Y-6238020D01*
X7094420D01*
X7149030Y-6292630D01*
G02X7146040Y-6309070I-7182J-7186D01*
G03X7132230Y-6318690I18955J-41934D01*
G02X7117770I-7230J7138D01*
G03X7040790Y-6363770I-32768J-32311D01*
G02X7033550Y-6376430I-9763J-2817D01*
G03X7009370Y-6391880I11452J-44570D01*
G02X6993630I-7870J6431D01*
G03X6974660Y-6378100I-35639J-29114D01*
G02X6968690Y-6365440I3678J9472D01*
G03X6892230Y-6318690I-43695J14438D01*
G02X6877770I-7230J7138D01*
G03X6812230I-32770J-32310D01*
G02X6797770I-7230J7138D01*
G03X6719770Y-6359510I-32773J-32309D01*
G02X6711170Y-6371450I-9984J-1876D01*
G03X6671060Y-6403710I6826J-49553D01*
G02X6661270Y-6401210I-4765J1759D01*
G37*
G36*
G01X7163020Y-6480980D02*
Y-6446930D01*
G03X7169210Y-6408230I-38021J25926D01*
G02X7176450Y-6395570I9763J2817D01*
G03X7197770Y-6383310I-11446J44573D01*
G02X7212230I7230J-7138D01*
G03X7230410Y-6394650I32777J32305D01*
G02X7236950Y-6407100I-3220J-9634D01*
G03X7252570Y-6459080I48050J-13898D01*
G02X7245990Y-6476980I-6583J-7740D01*
G01X7244980D01*
Y-6480980D01*
X7163020D01*
G37*
G36*
G01X9174980Y-10533830D02*
G02X9157640Y-10541010I-10159J6D01*
G01X9121610Y-10504980D01*
X8967350D01*
Y-10463950D01*
X9174980D01*
Y-10533830D01*
G37*
G36*
G01X8710820Y-9894480D02*
X8653920D01*
Y-9771490D01*
X8664640Y-9760770D01*
G02X8681980Y-9767950I7181J-7186D01*
G01Y-9840020D01*
X8740760D01*
G02X8747940Y-9857360I-6J-10159D01*
G01X8710820Y-9894480D01*
G37*
G36*
G01X8775680Y-9361980D02*
X8720020Y-9306320D01*
Y-9294020D01*
X8741020D01*
Y-9185980D01*
X8718020D01*
Y-9164820D01*
X8718800D01*
Y-9024820D01*
X8781200D01*
Y-9164820D01*
X8848800D01*
Y-9031180D01*
X8815030D01*
G02X8807850Y-9013840I6J10159D01*
G01X8846870Y-8974820D01*
X8848800D01*
Y-8951020D01*
X8973200D01*
Y-8978820D01*
X8976870D01*
X9015890Y-9017840D01*
G02X9008710Y-9035180I-7186J-7181D01*
G01X8973200D01*
Y-9168820D01*
X8973980D01*
Y-9181980D01*
X8969980D01*
Y-9290020D01*
X8990980D01*
Y-9361980D01*
X8775680D01*
G37*
G36*
G01X9808020Y-7022830D02*
Y-6940020D01*
X9890830D01*
G02X9898010Y-6957360I-6J-10159D01*
G01X9825360Y-7030010D01*
G02X9808020Y-7022830I-7181J7186D01*
G37*
%LPC*%
G75*
G54D34*
X8817000Y-9240000D03*
%LPD*%
G75*
G54D10*
X8024300Y-10685950D03*
Y-10635930D03*
Y-10585950D03*
Y-10535930D03*
Y-10485950D03*
Y-10435930D03*
Y-10385950D03*
Y-10335930D03*
Y-10285950D03*
Y-10235930D03*
Y-10185950D03*
Y-10135930D03*
X8877480Y-10485950D03*
Y-10535930D03*
Y-10585950D03*
Y-10635930D03*
Y-10685950D03*
Y-10135930D03*
Y-10185950D03*
Y-10235930D03*
Y-10285950D03*
Y-10335930D03*
Y-10385950D03*
Y-10435930D03*
G54D20*
X6730000Y-6542000D03*
X6780000D03*
X6830000D03*
X6880000D03*
X6930000D03*
X6980000D03*
X7030000D03*
X7080000D03*
X7130000D03*
X7180000D03*
X7230000D03*
X7280000D03*
G54D11*
X7994000Y-11036000D03*
X7864000D03*
X7217000Y-11548000D03*
X7347000D03*
X7216000Y-11666000D03*
X7346000D03*
X7217000Y-11429000D03*
X7347000D03*
X7698000Y-9950000D03*
Y-10080000D03*
X7577000Y-10084000D03*
Y-9954000D03*
X9784000Y-10556000D03*
X9654000D03*
X8257270Y-11035000D03*
X8127270D03*
X9228730Y-10805000D03*
X9358730D03*
X9233000Y-10530730D03*
X9357270Y-10685000D03*
X9227270D03*
X9353000Y-10529270D03*
X9478000Y-10535000D03*
X9487000Y-11723000D03*
X9357000D03*
X9363000Y-11012000D03*
X9233000D03*
X9364000Y-11133000D03*
X9234000D03*
X9664000Y-10062000D03*
X9794000D03*
X9024000Y-9236000D03*
X9154000D03*
X9007000Y-8736000D03*
X9137000D03*
X8870000Y-9782000D03*
X8740000D03*
X8686000Y-8739000D03*
X8816000D03*
X8687000Y-9240000D03*
X8817000D03*
X9233000Y-10400730D03*
X9353000Y-10399270D03*
X9478000Y-10405000D03*
X9387000Y-9849000D03*
X9257000D03*
X9258000Y-9727000D03*
X9388000D03*
X8299000Y-9487000D03*
Y-9617000D03*
X8419000Y-9487000D03*
Y-9617000D03*
X8785000Y-7744000D03*
X8655000D03*
G54D30*
X10355000Y-6740000D03*
G54D21*
X6592000Y-6361000D03*
X7418000D03*
X6556000Y-5922000D03*
X7454000D03*
G54D12*
X6988000Y-11026000D03*
X7149000Y-11194000D03*
X7216000Y-11848000D03*
X7113850Y-11910000D03*
X7022000Y-12042000D03*
X7049000Y-11124000D03*
X7994000Y-12349000D03*
X7517000Y-8882000D03*
X6647000Y-9179000D03*
Y-8718000D03*
X7519000Y-9011000D03*
X8092000Y-9565000D03*
X7953000Y-10029000D03*
X7846000Y-10046000D03*
X7454000Y-10449000D03*
X7322000Y-10334000D03*
X7283000Y-9972000D03*
X7346000Y-9505000D03*
X7738000Y-9489000D03*
X7609000Y-9156000D03*
X7919000Y-8843000D03*
X7609000Y-8813000D03*
X8070000Y-9852000D03*
X7806000Y-10152000D03*
X7371730Y-9268730D03*
X7687000Y-9774000D03*
X6522000Y-7782000D03*
X6584000Y-7433000D03*
X7650000Y-6762000D03*
X7486000Y-6703000D03*
X6446000Y-6693000D03*
X6556000Y-6922000D03*
X7945000Y-7286000D03*
X7836000Y-8286000D03*
X7352000Y-7756000D03*
X7120000Y-7975000D03*
X7102000Y-7566000D03*
X7059000Y-7316000D03*
X6841000Y-7635000D03*
X6856000Y-7337000D03*
X7082000Y-6975000D03*
X6845000Y-6968000D03*
X7265000Y-7147000D03*
X6743000D03*
X7044000Y-6668000D03*
X6917000Y-6700410D03*
X7503000Y-7775000D03*
X7360000Y-8205000D03*
X8074000Y-7123000D03*
X7245000Y-6351000D03*
X7165000D03*
X7085000D03*
X7125000Y-6421000D03*
X7045000D03*
X6958000D03*
X6878000D03*
X6925000Y-6351000D03*
X6845000D03*
X6765000D03*
X6718000Y-6421000D03*
X6645000Y-6486000D03*
X7285000Y-6421000D03*
X7607000Y-6429000D03*
X7815000Y-6248000D03*
X7700000Y-6129000D03*
X7423000Y-6070000D03*
X7054000Y-6087000D03*
X6790000Y-6064000D03*
X6477000Y-6159000D03*
X8006000Y-6177000D03*
X7002000Y-6268000D03*
X6686000Y-6271000D03*
X7239000Y-6260000D03*
X9983000Y-11930000D03*
X9640000Y-11383000D03*
X8850000Y-11495000D03*
X8922000Y-11051000D03*
X8832000Y-10963000D03*
X9056000Y-10919000D03*
X9008000Y-10812000D03*
X9853000Y-10665000D03*
X9944000Y-10550000D03*
X8751000Y-11869000D03*
X8276000Y-11665000D03*
X8286000Y-10472000D03*
X8507000Y-10515000D03*
X9280500Y-11826500D03*
X8675880Y-11031120D03*
X8558000Y-11194000D03*
X8424000D03*
X8617880Y-11122980D03*
X8482000Y-11124000D03*
X9451940Y-10685940D03*
X8174940D03*
X9950000Y-10431000D03*
X9497000Y-10181000D03*
X9522000Y-10051000D03*
X9454000Y-10123000D03*
X8115000Y-9423000D03*
X9542000Y-9385000D03*
X8906000Y-9202000D03*
X8902000Y-9083000D03*
X9245000Y-9105000D03*
X9393000Y-9174000D03*
X9308000Y-9144000D03*
X9295000Y-8766000D03*
X9260000Y-8650000D03*
X9161000Y-8606000D03*
X8921000Y-8634000D03*
X8771000Y-8543000D03*
X8909000Y-8528000D03*
X8187000Y-8645000D03*
X8477000Y-8998000D03*
X8438000Y-8780000D03*
X8622000Y-10406000D03*
X8395000Y-10271000D03*
X8525900Y-9724100D03*
X8660000Y-9542000D03*
X8595000Y-9626000D03*
X8349000Y-9798000D03*
X8803000Y-6792500D03*
X8229000Y-7232000D03*
X8238000Y-7092000D03*
X9629000Y-8016000D03*
X9420000Y-7971000D03*
X8316000Y-8003000D03*
X8387000Y-7879000D03*
X9443000Y-7609000D03*
X9891000Y-7616000D03*
X9947000Y-7260000D03*
X9423000Y-7372000D03*
X9519000Y-7069000D03*
X9265000Y-7029000D03*
X8448270Y-7508730D03*
X10000000Y-7811520D03*
X8132000Y-7193000D03*
X10012000Y-7735000D03*
X9676000Y-7862510D03*
X8530500D03*
X9609510Y-7920510D03*
X8593000D03*
X8454000Y-6302000D03*
X8322000Y-6098000D03*
X10919000Y-11911000D03*
X10853000Y-10507000D03*
X10472000Y-10969000D03*
X10846000Y-9980000D03*
X11097000Y-10420000D03*
X10278100Y-9724100D03*
X10249730Y-9268730D03*
X11692730D03*
X10363000Y-9798000D03*
X11238270Y-7508730D03*
X11736000Y-6078000D03*
X10926000Y-6164000D03*
X11479000Y-6276000D03*
X12580000Y-11634000D03*
X12382000Y-8937000D03*
X13878000Y-10222000D03*
X12678000Y-10380000D03*
X12115000Y-9626000D03*
X13662000Y-9268730D03*
X12685000Y-7054000D03*
X13219000Y-6948000D03*
X13819000Y-6909000D03*
X12421000Y-8205000D03*
X13058730Y-7508730D03*
X14965000Y-11146000D03*
X14346000Y-11634000D03*
X14604000Y-11170000D03*
X14118000Y-9542000D03*
X14089000Y-7429000D03*
X14622000Y-6599000D03*
X14300000Y-6362000D03*
G54D31*
G01X7347000Y-11548000D02*
X7351750D01*
X7600000Y-11299750D01*
Y-10479750D01*
X7642750Y-10437000D01*
X8023230D01*
X8024300Y-10435930D01*
G01Y-10385950D02*
X7954050D01*
X7944770Y-10395230D01*
X7942850D01*
X7939080Y-10399000D01*
X7627000D01*
X7562000Y-10464000D01*
Y-11284000D01*
X7417000Y-11429000D01*
X7347000D01*
G01X6988000Y-11026000D02*
Y-8615000D01*
X7022600Y-8580400D01*
Y-8450600D01*
X6860000Y-8288000D01*
Y-8044000D01*
X6743000Y-7927000D01*
Y-7147000D01*
G01X7346000Y-11666000D02*
X7638000Y-11374000D01*
Y-10498000D01*
X7650050Y-10485950D01*
X8024300D01*
G01X7149000Y-11194000D02*
Y-9425150D01*
X7226420Y-9347730D01*
G01X7216000Y-11666000D02*
Y-11848000D01*
G01X7113850Y-11910000D02*
Y-11568000D01*
X7133850Y-11548000D01*
X7217000D01*
G01X7022000Y-12042000D02*
Y-11494000D01*
X7087000Y-11429000D01*
X7217000D01*
G01X7049000Y-11124000D02*
Y-8607750D01*
X7060600Y-8596150D01*
Y-8504400D01*
X7360000Y-8205000D01*
G01X8175880Y-9984350D02*
Y-9957880D01*
X8070000Y-9852000D01*
G01X7806000Y-10152000D02*
Y-10171000D01*
X7870930Y-10235930D01*
X8024300D01*
G01X7371730Y-9268730D02*
X7305420D01*
X7226420Y-9347730D01*
G01X6846420D02*
Y-8596860D01*
X6676260Y-8426700D01*
Y-8240000D01*
G01X7464000Y-7124250D02*
X7453750Y-7114000D01*
G01X7265000Y-7147000D02*
X7420750D01*
X7453750Y-7114000D01*
G01X7503000Y-7775000D02*
X7882760D01*
X8093760Y-7986000D01*
G01X8871250Y-6860000D02*
X8667250Y-7064000D01*
X8544500D01*
X8129770Y-7478730D01*
X7935420D01*
G01X7245000Y-6348970D02*
X7106030Y-6210000D01*
X6602680D01*
X6514000Y-6298680D01*
Y-6566600D01*
X6631400Y-6684000D01*
X6704600D01*
X6780000Y-6608600D01*
Y-6542000D01*
G01X8074000Y-7123000D02*
X8094000Y-7103000D01*
Y-7013000D01*
X7766000Y-6685000D01*
Y-6392760D01*
X7556240Y-6183000D01*
X7395000D01*
X7297000Y-6281000D01*
Y-6284030D01*
X7263030Y-6318000D01*
X7260000D01*
X7245000Y-6333000D01*
Y-6348970D01*
G01X7239000Y-6260000D02*
X7151000Y-6172000D01*
X6586930D01*
X6476000Y-6282930D01*
Y-6582350D01*
X6615650Y-6722000D01*
X6720350D01*
X6830000Y-6612350D01*
Y-6542000D01*
G01X8132000Y-7193000D02*
Y-6997250D01*
X7804000Y-6669250D01*
Y-6377010D01*
X7571990Y-6145000D01*
X7379250D01*
X7264250Y-6260000D01*
X7239000D01*
G01X6980000Y-6542000D02*
Y-6486000D01*
X7045000Y-6421000D01*
G01X7245000Y-6348970D02*
Y-6351000D01*
G01X9357000Y-11723000D02*
Y-11626000D01*
X9438000Y-11545000D01*
X9953000D01*
X10278100Y-11219900D01*
Y-9724100D01*
G01X9280500Y-11826500D02*
Y-11799500D01*
X9357000Y-11723000D01*
G01X8675880Y-10837530D02*
Y-11031120D01*
G01X8257270Y-11035000D02*
X8275880Y-11016390D01*
Y-10837530D01*
G01X8575880D02*
Y-11082950D01*
X8558000Y-11100830D01*
Y-11194000D01*
G01X9654000Y-10556000D02*
Y-10456000D01*
X9623000Y-10425000D01*
G01X9478000Y-10535000D02*
X9633000D01*
X9654000Y-10556000D01*
G01X8725900Y-10837530D02*
X8816530D01*
X9090000Y-11111000D01*
X9212000D01*
X9234000Y-11133000D01*
G01X8877480Y-10685950D02*
Y-10844730D01*
X9105750Y-11073000D01*
X9172000D01*
X9233000Y-11012000D01*
G01X8475880Y-10837530D02*
Y-11048090D01*
X8424000Y-11099970D01*
Y-11194000D01*
G01X8625900Y-10837530D02*
Y-10999070D01*
X8617880Y-11007090D01*
Y-11122980D01*
G01X8482000Y-11124000D02*
X8525900Y-11080100D01*
Y-10837530D01*
G01X8877480Y-10535930D02*
X8880410Y-10533000D01*
X9110000D01*
X9227270Y-10650270D01*
Y-10685000D01*
G01X9228730Y-10805000D02*
Y-10686460D01*
X9227270Y-10685000D01*
G01X10000000Y-7811520D02*
X10007000Y-7818520D01*
Y-7820000D01*
X10020000Y-7833000D01*
Y-8084000D01*
X9890000Y-8214000D01*
Y-9854000D01*
X10078000Y-10042000D01*
Y-10901000D01*
X9967000Y-11012000D01*
X9363000D01*
G01X10012000Y-7735000D02*
X10058000Y-7781000D01*
Y-8099760D01*
X10035760Y-8122000D01*
X10035750D01*
X9928000Y-8229750D01*
Y-9838250D01*
X10116000Y-10026250D01*
Y-10916750D01*
X9980750Y-11052000D01*
X9483000D01*
X9402000Y-11133000D01*
X9364000D01*
G01X8525900Y-9984350D02*
Y-9724100D01*
G01X8625900Y-9984350D02*
Y-9759880D01*
X8660000Y-9725780D01*
Y-9542000D01*
G01X9478000Y-10405000D02*
X9382000Y-10309000D01*
X9209130D01*
X9132180Y-10385950D01*
X8877480D01*
G01X9233000Y-10400730D02*
X9351540D01*
X9353000Y-10399270D01*
G01X8877480Y-10435930D02*
X9197800D01*
X9233000Y-10400730D01*
G01X8575880Y-9984350D02*
Y-9756150D01*
X8595000Y-9737030D01*
Y-9626000D01*
G01X8877480Y-10335930D02*
X9118020D01*
X9182950Y-10271000D01*
X9397750D01*
X9458750Y-10332000D01*
X9677000D01*
X9793000Y-10216000D01*
Y-10205000D01*
G01X9794000Y-10062000D02*
Y-10204000D01*
X9793000Y-10205000D01*
G01X8475880Y-9984350D02*
Y-9756110D01*
X8419000Y-9699230D01*
Y-9617000D01*
G01X8425900Y-9984350D02*
Y-9759880D01*
X8299000Y-9632980D01*
Y-9617000D01*
G01X8375880Y-9984350D02*
Y-9824880D01*
X8349000Y-9798000D01*
G01X8813760Y-8240000D02*
X8953260D01*
X9131260Y-8418000D01*
X9132000D01*
X9752420Y-9038420D01*
Y-9323730D01*
G01X9257000Y-9849000D02*
Y-10025000D01*
X9096050Y-10185950D01*
X8877480D01*
G01X9258000Y-9727000D02*
Y-9848000D01*
X9257000Y-9849000D01*
G01X8530500Y-7862510D02*
Y-7927510D01*
X8317000Y-8141010D01*
Y-9469000D01*
X8299000Y-9487000D01*
G01X8593000Y-7920510D02*
X8355000Y-8158510D01*
Y-9423000D01*
X8419000Y-9487000D01*
G01X8448270Y-7508730D02*
X8345420D01*
X8315420Y-7478730D01*
G01X9965000Y-6830000D02*
Y-6930000D01*
X9800000Y-7095000D01*
X9790750D01*
X9775750Y-7110000D01*
X9696000D01*
X9676000Y-7130000D01*
Y-7862510D01*
G01X9765000Y-6830000D02*
X9780000Y-6845000D01*
Y-7052000D01*
X9760000Y-7072000D01*
X9680250D01*
X9638000Y-7114250D01*
Y-7803690D01*
X9618000Y-7823690D01*
Y-7912020D01*
X9609510Y-7920510D01*
G01X8873000Y-6873890D02*
Y-6860000D01*
G01X10472000Y-10969000D02*
Y-7282250D01*
X10303750Y-7114000D01*
G01X11182420Y-9321730D02*
Y-9279420D01*
X10713760Y-8810760D01*
Y-8240000D01*
G01X11692730Y-9268730D02*
X11615420D01*
X11562420Y-9321730D01*
G01X10249730Y-9268730D02*
X10187420D01*
X10132420Y-9323730D01*
G01X10363000Y-9798000D02*
Y-8117740D01*
X10231260Y-7986000D01*
G01X11721250Y-6860000D02*
X11387250Y-7194000D01*
X10967000D01*
X10755420Y-7405580D01*
Y-7508730D01*
G01X11135420D02*
X11238270D01*
G01X12613760Y-8240000D02*
Y-8847760D01*
X13054730Y-9288730D01*
X13161420D01*
G01X12115000Y-9626000D02*
X12131260Y-9609740D01*
Y-7986000D01*
G01X13541420Y-9288730D02*
X13642000D01*
X13662000Y-9268730D01*
G01D02*
Y-8259740D01*
X13075420Y-7673160D01*
Y-7348730D01*
G01X12138750Y-6340000D02*
Y-6976750D01*
X12510730Y-7348730D01*
X12695420D01*
G01X13058730Y-7508730D02*
Y-7365420D01*
X13075420Y-7348730D01*
G01X14604000Y-11170000D02*
X14609000Y-11165000D01*
Y-7138750D01*
X13556250Y-6086000D01*
G01X14118000Y-9542000D02*
Y-8072740D01*
X14031260Y-7986000D01*
G54D13*
X6846420Y-9347730D03*
X7226420D03*
X7935420Y-7478730D03*
X9752420Y-9323730D03*
X8315420Y-7478730D03*
X11182420Y-9321730D03*
X11562420D03*
X10132420Y-9323730D03*
X10755420Y-7508730D03*
X11135420D03*
X13161420Y-9288730D03*
X13541420D03*
X12695420Y-7348730D03*
X13075420D03*
G54D22*
X7365000Y-6486000D03*
G54D32*
G01X7864000Y-11099100D02*
Y-11036000D01*
G01D02*
Y-10972900D01*
G01X7800900Y-11036000D02*
X7864000D01*
G01X7994000D02*
Y-10894000D01*
X8050470Y-10837530D01*
X8175880D01*
G01X7994000Y-11036000D02*
Y-12349000D01*
G01X7698000Y-10143100D02*
Y-10080000D01*
G01D02*
X7761100D01*
G01X7929350Y-10185950D02*
X8024300D01*
G01D02*
X8119250D01*
G01X8024300Y-10285950D02*
X7825620D01*
X7774670Y-10235000D01*
X7758000D01*
G01X8024300Y-10335930D02*
X7758930D01*
X7758000Y-10335000D01*
G01X6917000Y-6700410D02*
X6932000Y-6715410D01*
Y-7625890D01*
X7711500Y-8405390D01*
Y-9306500D01*
X7385000Y-9633000D01*
Y-10248990D01*
X7471010Y-10335000D01*
X7578000D01*
G01X6980000Y-6542000D02*
Y-7606000D01*
X7759500Y-8385500D01*
Y-9326500D01*
X7433000Y-9653000D01*
Y-10029000D01*
X7488000Y-10084000D01*
X7577000D01*
G01X7578000Y-10235000D02*
Y-10085000D01*
X7577000Y-10084000D01*
G01X7698000Y-9950000D02*
X7581000D01*
X7577000Y-9954000D01*
G01X7698000Y-9950000D02*
X7979000D01*
X8024300Y-9995300D01*
Y-10135930D01*
G01D02*
X8161690D01*
G01X7698000Y-9950000D02*
Y-9785000D01*
X7687000Y-9774000D01*
G01X7044000Y-6668000D02*
X7030000Y-6654000D01*
Y-6542000D01*
G01X6718000Y-6421000D02*
Y-6530000D01*
X6730000Y-6542000D01*
G01X7280000D02*
Y-6426000D01*
X7285000Y-6421000D01*
G01X7229900D02*
X7285000D01*
G01D02*
X7340100D01*
G01X7454000Y-6027100D02*
Y-5922000D01*
G01X7378900D02*
X7454000D01*
G01D02*
X7529100D01*
G01X6556000Y-6027100D02*
Y-5922000D01*
G01X6480900D02*
X6556000D01*
G01D02*
X6631100D01*
G01X7418000Y-6361000D02*
Y-6255900D01*
G01X7342900Y-6361000D02*
X7418000D01*
G01D02*
X7493100D01*
G01X7130000Y-6542000D02*
Y-6426000D01*
X7125000Y-6421000D01*
G01X6880000Y-6542000D02*
Y-6423000D01*
X6878000Y-6421000D01*
G01X9487000Y-11786100D02*
Y-11723000D01*
G01D02*
Y-11659900D01*
G01Y-11723000D02*
X9550100D01*
G01X9233000Y-10593830D02*
Y-10530730D01*
G01X9169900D02*
X9233000D01*
G01X9358730Y-10868100D02*
Y-10805000D01*
G01D02*
X9421830D01*
G01X8127270Y-11098100D02*
Y-11035000D01*
G01D02*
Y-10971900D01*
G01X9784000Y-10619100D02*
Y-10556000D01*
G01D02*
X9847100D01*
G01X8225900Y-10932480D02*
Y-10837530D01*
G01D02*
Y-10742580D01*
G01X8782530Y-10485950D02*
X8877480D01*
G01D02*
X8972430D01*
G01X9353000Y-10529270D02*
Y-10680730D01*
X9357270Y-10685000D01*
G01X9451940Y-10685940D02*
X9358210D01*
X9357270Y-10685000D01*
G01X8161690Y-10135930D02*
X8175880Y-10150120D01*
Y-10685000D01*
G01D02*
Y-10837530D01*
G01X8174940Y-10685940D02*
X8175880Y-10685000D01*
G01X8675880Y-9984350D02*
Y-9846120D01*
G01D02*
X8740000Y-9782000D01*
G01X9387000Y-9912100D02*
Y-9849000D01*
G01D02*
X9450100D01*
G01X8817000Y-9303100D02*
Y-9240000D01*
G01D02*
X8880100D01*
G01X8740000Y-9782000D02*
Y-9718900D01*
G01X8676900Y-9782000D02*
X8740000D01*
G01X9154000Y-9299100D02*
Y-9236000D01*
G01D02*
X9217100D01*
G01X9664000Y-10125100D02*
Y-10062000D01*
G01D02*
Y-9998900D01*
G01X9600900Y-10062000D02*
X9664000D01*
G01X9793000Y-10425000D02*
Y-10349900D01*
G01X9727900Y-10425000D02*
X9793000D01*
G01D02*
X9858100D01*
G01X9623000Y-10280100D02*
Y-10205000D01*
G01D02*
Y-10129900D01*
G01X9557900Y-10205000D02*
X9623000D01*
G01D02*
X9688100D01*
G01X9007000Y-8736000D02*
Y-8912000D01*
G01X9137000D02*
Y-8962250D01*
X9103450Y-8995800D01*
X9040550D01*
X9007000Y-8962250D01*
Y-8912000D01*
G01X8685000Y-8908000D02*
Y-8740000D01*
X8686000Y-8739000D01*
G01X8815000Y-8908000D02*
Y-8959990D01*
X8783190Y-8991800D01*
X8718550D01*
X8685000Y-8958250D01*
Y-8908000D01*
G01X8875400Y-9395000D02*
X9024000D01*
G01X8687000Y-9240000D02*
Y-9320000D01*
X8762000Y-9395000D01*
X8875400D01*
G01X8725900Y-9984350D02*
Y-9926100D01*
X8870000Y-9782000D01*
G01X8685000Y-9098000D02*
Y-9238000D01*
X8687000Y-9240000D01*
G01X9007000Y-9102000D02*
Y-9219000D01*
X9024000Y-9236000D01*
G01X8875400Y-9395000D02*
Y-9776600D01*
X8870000Y-9782000D01*
G01X9024000Y-9395000D02*
Y-9236000D01*
G01X9388000Y-9727000D02*
Y-9426000D01*
X9358000Y-9396000D01*
X9025000D01*
X9024000Y-9395000D01*
G01X8161690Y-10135930D02*
X8653520D01*
X8725900Y-10063550D01*
Y-9984350D01*
G01X9865000Y-6945100D02*
Y-6830000D01*
G01D02*
Y-6714900D01*
G01X8676000Y-7671600D02*
Y-7583000D01*
G01D02*
Y-7494400D01*
G01X8587400Y-7583000D02*
X8676000D01*
G01D02*
X8764600D01*
G01X8655000Y-7807100D02*
Y-7744000D01*
G01D02*
Y-7680900D01*
G01X8591900Y-7744000D02*
X8655000D01*
G01X8798000Y-6475100D02*
Y-6340000D01*
G01D02*
Y-6204900D01*
G01X8690900Y-6340000D02*
X8798000D01*
G01X10332000Y-6475100D02*
Y-6340000D01*
G01D02*
Y-6204900D01*
G01Y-6340000D02*
X10439100D01*
G54D14*
X7758000Y-10235000D03*
X7578000D03*
Y-10335000D03*
X7758000D03*
G54D23*
X8725900Y-10837530D03*
X8675880D03*
X8625900D03*
X8575880D03*
X8525900D03*
X8475880D03*
X8425900D03*
X8375880D03*
X8325900D03*
X8275880D03*
X8225900D03*
X8175880D03*
Y-9984350D03*
X8225900D03*
X8275880D03*
X8325900D03*
X8375880D03*
X8425900D03*
X8475880D03*
X8525900D03*
X8575880D03*
X8625900D03*
X8675880D03*
X8725900D03*
G54D33*
G01X8815000Y-8908000D02*
X9003000D01*
X9007000Y-8912000D01*
G01X8785000Y-7744000D02*
X8779000Y-7750000D01*
Y-7909000D01*
X8617000Y-8071000D01*
Y-8670000D01*
X8686000Y-8739000D01*
G01X8785000Y-7744000D02*
Y-7674000D01*
X8876000Y-7583000D01*
G01X9265000Y-6830000D02*
Y-7029000D01*
G01D02*
Y-7194000D01*
X8876000Y-7583000D01*
G54D15*
X7417510Y-8500000D03*
X8130000Y-6600000D03*
X9555010Y-8500000D03*
X11455010D03*
X10980000Y-6600000D03*
X13355010Y-8500000D03*
X12880000Y-6600000D03*
G54D24*
X9363000Y-12177000D03*
X9533000D03*
G54D16*
X7925510Y-8500000D03*
X6909510D03*
X7622000Y-6600000D03*
X10063010Y-8500000D03*
X9047010D03*
X8638000Y-6600000D03*
X11963010Y-8500000D03*
X10947010D03*
X10472000Y-6600000D03*
X11488000D03*
X12847010Y-8500000D03*
X13863010D03*
X13388000Y-6600000D03*
X12372000D03*
G54D25*
X8685000Y-9098000D03*
X8815000D03*
Y-8908000D03*
X8750000D03*
X8685000D03*
X9007000Y-9102000D03*
X9137000D03*
Y-8912000D03*
X9072000D03*
X9007000D03*
G54D17*
X7067510Y-8240000D03*
X7702510Y-7986000D03*
X7845000Y-7114000D03*
X9205010Y-8240000D03*
X9840010Y-7986000D03*
X8480000Y-6860000D03*
X11105010Y-8240000D03*
X11740010Y-7986000D03*
X11330000Y-6860000D03*
X10695000Y-7114000D03*
X13640010Y-7986000D03*
X13005010Y-8240000D03*
X12530000Y-6340000D03*
X13165000Y-6086000D03*
G54D26*
X9623000Y-10205000D03*
X9793000D03*
X9623000Y-10425000D03*
X9793000D03*
G54D27*
X8676000Y-7583000D03*
X8876000D03*
G54D18*
X8093760Y-7986000D03*
X6676260Y-8240000D03*
X7453750Y-7114000D03*
X8813760Y-8240000D03*
X8871250Y-6860000D03*
X10231260Y-7986000D03*
X10713760Y-8240000D03*
X10303750Y-7114000D03*
X11721250Y-6860000D03*
X12131260Y-7986000D03*
X12613760Y-8240000D03*
X14031260Y-7986000D03*
X13556250Y-6086000D03*
X12138750Y-6340000D03*
G54D19*
X6668000Y-6641000D03*
X6880000D03*
X7130000D03*
X7343000D03*
G54D28*
X9165000Y-6830000D03*
X9265000D03*
X9365000D03*
X9465000D03*
X9565000D03*
X9665000D03*
X9765000D03*
X9865000D03*
X9965000D03*
G54D29*
X8798000Y-6340000D03*
X10332000D03*
M02*
