  0
SECTION
  2
HEADER
  9
$ACADVER
  1
AC1009
  9
$INSBASE
 10
0.000000
 20
0.000000
  9
$LIMMIN
 10
-270.350000
 20
-299.973500
  9
$LIMMAX
 10
5729.650000
 20
5850.530300
  9
$EXTMIN
 10
-270.350000
 20
-299.973500
  9
$EXTMAX
 10
5729.650000
 20
5850.530300
  9
$ATTMODE
 70
0
  9
$LUNITS
 70
2
  9
$LUPREC
 70
4
  9
$THICKNESS
 40
1.600000
  0
ENDSEC
  0
SECTION
  2
TABLES
  0
TABLE
  2
LTYPE
 70
1
  0
LTYPE
  3
Solid Line
  2
CONTINUOUS
 70
0
 72
65
 73
0
 40
0.000000
  0
ENDTAB
  0
TABLE
  2
LAYER
 70
8
  0
LAYER
  2
BG_SILKSCREEN_BOTTOM
 70
0
 62
1
  6
CONTINUOUS
  0
LAYER
  2
BG_SILKSCREEN_TOP
 70
0
 62
2
  6
CONTINUOUS
  0
LAYER
  2
BG_DIMENSION
 70
0
 62
3
  6
CONTINUOUS
  0
LAYER
  2
BG_OUTLINE
 70
0
 62
4
  6
CONTINUOUS
  0
LAYER
  2
MA_NCLEGEND-1-2
 70
0
 62
5
  6
CONTINUOUS
  0
LAYER
  2
PG_SILKSCREEN_TOP
 70
0
 62
6
  6
CONTINUOUS
  0
LAYER
  2
PIN_TOP
 70
0
 62
7
  6
CONTINUOUS
  0
LAYER
  2
RD_SILKSCREEN_TOP
 70
0
 62
8
  6
CONTINUOUS
  0
ENDTAB
  0
TABLE
  2
STYLE
 70
1
  0
STYLE
  2
STANDARD
 70
0
 40
0.000000
 41
1.000000
 50
0.000000
 71
0
 42
0.200000
  3
txt
  0
ENDTAB
  0
ENDSEC
  0
SECTION
  2
BLOCKS
  0
BLOCK
  8
0
  2
FIGURE_CIRCLE
 70
0
 10
0.000000
 20
0.000000
  0
CIRCLE
  8
0
 10
0.000000
 20
0.000000
 40
0.500000
  0
ENDBLK
  0
BLOCK
  8
0
  2
FIGURE_SQUARE
 70
0
 10
0.000000
 20
0.000000
  0
POLYLINE
  8
0
 66
1
 70
1
 40
0.000000
 41
0.000000
 39
0.000000
  0
VERTEX
  8
0
 10
-0.500000
 20
-0.500000
 40
0.000000
 41
0.000000
 42
0.000000
  0
VERTEX
  8
0
 10
-0.500000
 20
0.500000
 40
0.000000
 41
0.000000
 42
0.000000
  0
VERTEX
  8
0
 10
0.500000
 20
0.500000
 40
0.000000
 41
0.000000
 42
0.000000
  0
VERTEX
  8
0
 10
0.500000
 20
-0.500000
 40
0.000000
 41
0.000000
 42
0.000000
  0
SEQEND
  0
ENDBLK
  0
BLOCK
  8
0
  2
FIGURE_HEX
 70
0
 10
0.000000
 20
0.000000
  0
POLYLINE
  8
0
 66
1
 70
1
 40
0.000000
 41
0.000000
 39
0.000000
  0
VERTEX
  8
0
 10
-0.500000
 20
0.000000
 40
0.000000
 41
0.000000
 42
0.000000
  0
VERTEX
  8
0
 10
-0.250000
 20
0.500000
 40
0.000000
 41
0.000000
 42
0.000000
  0
VERTEX
  8
0
 10
0.250000
 20
0.500000
 40
0.000000
 41
0.000000
 42
0.000000
  0
VERTEX
  8
0
 10
0.500000
 20
0.000000
 40
0.000000
 41
0.000000
 42
0.000000
  0
VERTEX
  8
0
 10
0.250000
 20
-0.500000
 40
0.000000
 41
0.000000
 42
0.000000
  0
VERTEX
  8
0
 10
-0.250000
 20
-0.500000
 40
0.000000
 41
0.000000
 42
0.000000
  0
SEQEND
  0
ENDBLK
  0
BLOCK
  8
0
  2
FIGURE_OCT
 70
0
 10
0.000000
 20
0.000000
  0
POLYLINE
  8
0
 66
1
 70
1
 40
0.000000
 41
0.000000
 39
0.000000
  0
VERTEX
  8
0
 10
-0.500000
 20
-0.207100
 40
0.000000
 41
0.000000
 42
0.000000
  0
VERTEX
  8
0
 10
-0.500000
 20
0.207100
 40
0.000000
 41
0.000000
 42
0.000000
  0
VERTEX
  8
0
 10
-0.207100
 20
0.500000
 40
0.000000
 41
0.000000
 42
0.000000
  0
VERTEX
  8
0
 10
0.207100
 20
0.500000
 40
0.000000
 41
0.000000
 42
0.000000
  0
VERTEX
  8
0
 10
0.500000
 20
0.207100
 40
0.000000
 41
0.000000
 42
0.000000
  0
VERTEX
  8
0
 10
0.500000
 20
-0.207100
 40
0.000000
 41
0.000000
 42
0.000000
  0
VERTEX
  8
0
 10
0.207100
 20
-0.500000
 40
0.000000
 41
0.000000
 42
0.000000
  0
VERTEX
  8
0
 10
-0.207100
 20
-0.500000
 40
0.000000
 41
0.000000
 42
0.000000
  0
SEQEND
  0
ENDBLK
  0
BLOCK
  8
0
  2
FIGURE_OBLONG
 70
0
 10
0.000000
 20
0.000000
  0
POLYLINE
  8
0
 66
1
 70
1
 40
0.000000
 41
0.000000
 39
0.000000
  0
VERTEX
  8
0
 10
-0.500000
 20
-0.125000
 40
0.000000
 41
0.000000
 42
0.000000
  0
VERTEX
  8
0
 10
-0.500000
 20
0.125000
 40
0.000000
 41
0.000000
 42
0.000000
  0
VERTEX
  8
0
 10
-0.416000
 20
0.375000
 40
0.000000
 41
0.000000
 42
0.000000
  0
VERTEX
  8
0
 10
-0.250000
 20
0.500000
 40
0.000000
 41
0.000000
 42
0.000000
  0
VERTEX
  8
0
 10
0.250000
 20
0.500000
 40
0.000000
 41
0.000000
 42
0.000000
  0
VERTEX
  8
0
 10
0.416000
 20
0.375000
 40
0.000000
 41
0.000000
 42
0.000000
  0
VERTEX
  8
0
 10
0.500000
 20
0.125000
 40
0.000000
 41
0.000000
 42
0.000000
  0
VERTEX
  8
0
 10
0.500000
 20
-0.125000
 40
0.000000
 41
0.000000
 42
0.000000
  0
VERTEX
  8
0
 10
0.416000
 20
-0.375000
 40
0.000000
 41
0.000000
 42
0.000000
  0
VERTEX
  8
0
 10
0.250000
 20
-0.500000
 40
0.000000
 41
0.000000
 42
0.000000
  0
VERTEX
  8
0
 10
-0.250000
 20
-0.500000
 40
0.000000
 41
0.000000
 42
0.000000
  0
VERTEX
  8
0
 10
-0.416000
 20
-0.375000
 40
0.000000
 41
0.000000
 42
0.000000
  0
SEQEND
  0
ENDBLK
  0
BLOCK
  8
0
  2
FIGURE_TRI
 70
0
 10
0.000000
 20
0.000000
  0
POLYLINE
  8
0
 66
1
 70
1
 40
0.000000
 41
0.000000
 39
0.000000
  0
VERTEX
  8
0
 10
-0.500000
 20
-0.500000
 40
0.000000
 41
0.000000
 42
0.000000
  0
VERTEX
  8
0
 10
0.000000
 20
0.500000
 40
0.000000
 41
0.000000
 42
0.000000
  0
VERTEX
  8
0
 10
0.500000
 20
-0.500000
 40
0.000000
 41
0.000000
 42
0.000000
  0
SEQEND
  0
ENDBLK
  0
BLOCK
  8
0
  2
FIGURE_CROSS
 70
0
 10
0.000000
 20
0.000000
  0
POLYLINE
  8
0
 66
1
 70
0
 40
0.000000
 41
0.000000
 39
0.000000
  0
VERTEX
  8
0
 10
-0.500000
 20
0.000000
 40
0.000000
 41
0.000000
 42
0.000000
  0
VERTEX
  8
0
 10
0.500000
 20
0.000000
 40
0.000000
 41
0.000000
 42
0.000000
  0
SEQEND
  0
POLYLINE
  8
0
 66
1
 70
0
 40
0.000000
 41
0.000000
 39
0.000000
  0
VERTEX
  8
0
 10
0.000000
 20
0.500000
 40
0.000000
 41
0.000000
 42
0.000000
  0
VERTEX
  8
0
 10
0.000000
 20
-0.500000
 40
0.000000
 41
0.000000
 42
0.000000
  0
SEQEND
  0
ENDBLK
  0
BLOCK
  8
0
  2
FIGURE_DIAMOND
 70
0
 10
0.000000
 20
0.000000
  0
POLYLINE
  8
0
 66
1
 70
1
 40
0.000000
 41
0.000000
 39
0.000000
  0
VERTEX
  8
0
 10
-0.500000
 20
0.000000
 40
0.000000
 41
0.000000
 42
0.000000
  0
VERTEX
  8
0
 10
0.000000
 20
0.500000
 40
0.000000
 41
0.000000
 42
0.000000
  0
VERTEX
  8
0
 10
0.500000
 20
0.000000
 40
0.000000
 41
0.000000
 42
0.000000
  0
VERTEX
  8
0
 10
0.000000
 20
-0.500000
 40
0.000000
 41
0.000000
 42
0.000000
  0
SEQEND
  0
ENDBLK
  0
ENDSEC
  0
SECTION
  2
ENTITIES
  0
INSERT
  8
MA_NCLEGEND-1-2
  2
FIGURE_CROSS
 10
85.930000
 20
-79.205100
 41
0.300000
 42
0.300000
 50
0.000000
  0
INSERT
  8
MA_NCLEGEND-1-2
  2
FIGURE_CROSS
 10
96.095100
 20
-79.205100
 41
0.300000
 42
0.300000
 50
0.000000
  0
INSERT
  8
MA_NCLEGEND-1-2
  2
FIGURE_CROSS
 10
85.305000
 20
-78.625100
 41
0.300000
 42
0.300000
 50
0.000000
  0
INSERT
  8
MA_NCLEGEND-1-2
  2
FIGURE_CROSS
 10
96.760000
 20
-78.625100
 41
0.300000
 42
0.300000
 50
0.000000
  0
INSERT
  8
MA_NCLEGEND-1-2
  2
FIGURE_CROSS
 10
100.120000
 20
-77.350000
 41
0.300000
 42
0.300000
 50
0.000000
  0
INSERT
  8
MA_NCLEGEND-1-2
  2
FIGURE_CROSS
 10
81.320000
 20
-71.930000
 41
0.300000
 42
0.300000
 50
0.000000
  0
INSERT
  8
MA_NCLEGEND-1-2
  2
FIGURE_CROSS
 10
72.390000
 20
-62.600000
 41
0.300000
 42
0.300000
 50
0.000000
  0
INSERT
  8
MA_NCLEGEND-1-2
  2
FIGURE_CROSS
 10
100.000000
 20
-78.115200
 41
0.300000
 42
0.300000
 50
0.000000
  0
INSERT
  8
MA_NCLEGEND-1-2
  2
FIGURE_CROSS
 10
80.740000
 20
-71.230000
 41
0.300000
 42
0.300000
 50
0.000000
  0
INSERT
  8
MA_NCLEGEND-1-2
  2
FIGURE_CROSS
 10
83.490000
 20
-97.980000
 41
0.300000
 42
0.300000
 50
0.000000
  0
INSERT
  8
MA_NCLEGEND-1-2
  2
FIGURE_CROSS
 10
103.630000
 20
-97.980000
 41
0.300000
 42
0.300000
 50
0.000000
  0
INSERT
  8
MA_NCLEGEND-1-2
  2
FIGURE_CROSS
 10
81.749400
 20
-106.859400
 41
0.300000
 42
0.300000
 50
0.000000
  0
INSERT
  8
MA_NCLEGEND-1-2
  2
FIGURE_CROSS
 10
79.940000
 20
-123.490000
 41
0.300000
 42
0.300000
 50
0.000000
  0
INSERT
  8
MA_NCLEGEND-1-2
  2
FIGURE_CROSS
 10
76.870000
 20
-97.740000
 41
0.300000
 42
0.300000
 50
0.000000
  0
INSERT
  8
MA_NCLEGEND-1-2
  2
FIGURE_CROSS
 10
94.519400
 20
-106.859400
 41
0.300000
 42
0.300000
 50
0.000000
  0
INSERT
  8
MA_NCLEGEND-1-2
  2
FIGURE_CROSS
 10
84.820000
 20
-111.240000
 41
0.300000
 42
0.300000
 50
0.000000
  0
INSERT
  8
MA_NCLEGEND-1-2
  2
FIGURE_CROSS
 10
70.490000
 20
-111.240000
 41
0.300000
 42
0.300000
 50
0.000000
  0
INSERT
  8
MA_NCLEGEND-1-2
  2
FIGURE_CROSS
 10
73.600000
 20
-82.050000
 41
0.300000
 42
0.300000
 50
0.000000
  0
INSERT
  8
MA_NCLEGEND-1-2
  2
FIGURE_CROSS
 10
75.030000
 20
-77.750000
 41
0.300000
 42
0.300000
 50
0.000000
  0
INSERT
  8
MA_NCLEGEND-1-2
  2
FIGURE_CROSS
 10
86.178800
 20
-111.229800
 41
0.300000
 42
0.300000
 50
0.000000
  0
INSERT
  8
MA_NCLEGEND-1-2
  2
FIGURE_CROSS
 10
104.720000
 20
-109.690000
 41
0.300000
 42
0.300000
 50
0.000000
  0
INSERT
  8
MA_NCLEGEND-1-2
  2
FIGURE_CROSS
 10
70.220000
 20
-120.420000
 41
0.300000
 42
0.300000
 50
0.000000
  0
INSERT
  8
MA_NCLEGEND-1-2
  2
FIGURE_CROSS
 10
71.138500
 20
-119.100000
 41
0.300000
 42
0.300000
 50
0.000000
  0
INSERT
  8
MA_NCLEGEND-1-2
  2
FIGURE_CROSS
 10
72.160000
 20
-118.480000
 41
0.300000
 42
0.300000
 50
0.000000
  0
INSERT
  8
MA_NCLEGEND-1-2
  2
FIGURE_CROSS
 10
112.382700
 20
-75.087300
 41
0.300000
 42
0.300000
 50
0.000000
  0
INSERT
  8
MA_NCLEGEND-1-2
  2
FIGURE_CROSS
 10
130.587300
 20
-75.087300
 41
0.300000
 42
0.300000
 50
0.000000
  0
INSERT
  8
MA_NCLEGEND-1-2
  2
FIGURE_CROSS
 10
84.482700
 20
-75.087300
 41
0.300000
 42
0.300000
 50
0.000000
  0
INSERT
  8
MA_NCLEGEND-1-2
  2
FIGURE_CROSS
 10
136.620000
 20
-92.687300
 41
0.300000
 42
0.300000
 50
0.000000
  0
INSERT
  8
MA_NCLEGEND-1-2
  2
FIGURE_CROSS
 10
116.927300
 20
-92.687300
 41
0.300000
 42
0.300000
 50
0.000000
  0
INSERT
  8
MA_NCLEGEND-1-2
  2
FIGURE_CROSS
 10
102.497300
 20
-92.687300
 41
0.300000
 42
0.300000
 50
0.000000
  0
INSERT
  8
MA_NCLEGEND-1-2
  2
FIGURE_CROSS
 10
73.717300
 20
-92.687300
 41
0.300000
 42
0.300000
 50
0.000000
  0
INSERT
  8
MA_NCLEGEND-1-2
  2
FIGURE_CROSS
 10
84.240000
 20
-111.940000
 41
0.300000
 42
0.300000
 50
0.000000
  0
INSERT
  8
MA_NCLEGEND-1-2
  2
FIGURE_CROSS
 10
71.490000
 20
-111.940000
 41
0.300000
 42
0.300000
 50
0.000000
  0
INSERT
  8
MA_NCLEGEND-1-2
  2
FIGURE_CROSS
 10
78.060000
 20
-101.520000
 41
0.300000
 42
0.300000
 50
0.000000
  0
INSERT
  8
MA_NCLEGEND-1-2
  2
FIGURE_CROSS
 10
80.700000
 20
-98.520000
 41
0.300000
 42
0.300000
 50
0.000000
  0
INSERT
  8
MA_NCLEGEND-1-2
  2
FIGURE_CROSS
 10
69.170000
 20
-67.004100
 41
0.300000
 42
0.300000
 50
0.000000
  0
INSERT
  8
MA_NCLEGEND-1-2
  2
FIGURE_CROSS
 10
70.440000
 20
-66.680000
 41
0.300000
 42
0.300000
 50
0.000000
  0
INSERT
  8
MA_NCLEGEND-1-2
  2
FIGURE_CROSS
 10
92.650000
 20
-70.290000
 41
0.300000
 42
0.300000
 50
0.000000
  0
INSERT
  8
MA_NCLEGEND-1-2
  2
FIGURE_CROSS
 10
85.950000
 20
-96.260000
 41
0.300000
 42
0.300000
 50
0.000000
  0
INSERT
  8
MA_NCLEGEND-1-2
  2
FIGURE_CROSS
 10
121.150000
 20
-96.260000
 41
0.300000
 42
0.300000
 50
0.000000
  0
INSERT
  8
MA_NCLEGEND-1-2
  2
FIGURE_CROSS
 10
85.580000
 20
-111.940000
 41
0.300000
 42
0.300000
 50
0.000000
  0
INSERT
  8
MA_NCLEGEND-1-2
  2
FIGURE_CROSS
 10
146.040000
 20
-111.700000
 41
0.300000
 42
0.300000
 50
0.000000
  0
INSERT
  8
MA_NCLEGEND-1-2
  2
FIGURE_CROSS
 10
86.600000
 20
-95.420000
 41
0.300000
 42
0.300000
 50
0.000000
  0
INSERT
  8
MA_NCLEGEND-1-2
  2
FIGURE_CROSS
 10
141.180000
 20
-95.420000
 41
0.300000
 42
0.300000
 50
0.000000
  0
INSERT
  8
MA_NCLEGEND-1-2
  2
FIGURE_CROSS
 10
86.758800
 20
-110.311200
 41
0.300000
 42
0.300000
 50
0.000000
  0
INSERT
  8
MA_NCLEGEND-1-2
  2
FIGURE_CROSS
 10
69.880000
 20
-110.260000
 41
0.300000
 42
0.300000
 50
0.000000
  0
INSERT
  8
MA_NCLEGEND-1-2
  2
FIGURE_CROSS
 10
67.430000
 20
-71.470000
 41
0.300000
 42
0.300000
 50
0.000000
  0
INSERT
  8
MA_NCLEGEND-1-2
  2
FIGURE_CROSS
 10
72.650000
 20
-71.470000
 41
0.300000
 42
0.300000
 50
0.000000
  0
INSERT
  8
MA_NCLEGEND-1-2
  2
FIGURE_CROSS
 10
92.805000
 20
-118.265000
 41
0.300000
 42
0.300000
 50
0.000000
  0
INSERT
  8
MA_NCLEGEND-1-2
  2
FIGURE_CROSS
 10
85.259000
 20
-97.241000
 41
0.300000
 42
0.300000
 50
0.000000
  0
INSERT
  8
MA_NCLEGEND-1-2
  2
FIGURE_CROSS
 10
102.781000
 20
-97.241000
 41
0.300000
 42
0.300000
 50
0.000000
  0
INSERT
  8
MA_NCLEGEND-1-2
  2
FIGURE_CROSS
 10
66.860000
 20
-62.710000
 41
0.300000
 42
0.300000
 50
0.000000
  0
INSERT
  8
MA_NCLEGEND-1-2
  2
FIGURE_CROSS
 10
70.020000
 20
-62.680000
 41
0.300000
 42
0.300000
 50
0.000000
  0
INSERT
  8
MA_NCLEGEND-1-2
  2
FIGURE_CROSS
 10
68.450000
 20
-69.680000
 41
0.300000
 42
0.300000
 50
0.000000
  0
INSERT
  8
MA_NCLEGEND-1-2
  2
FIGURE_CROSS
 10
70.820000
 20
-69.750000
 41
0.300000
 42
0.300000
 50
0.000000
  0
INSERT
  8
MA_NCLEGEND-1-2
  2
FIGURE_CROSS
 10
68.560000
 20
-73.370000
 41
0.300000
 42
0.300000
 50
0.000000
  0
INSERT
  8
MA_NCLEGEND-1-2
  2
FIGURE_CROSS
 10
68.410000
 20
-76.350000
 41
0.300000
 42
0.300000
 50
0.000000
  0
INSERT
  8
MA_NCLEGEND-1-2
  2
FIGURE_CROSS
 10
70.590000
 20
-73.160000
 41
0.300000
 42
0.300000
 50
0.000000
  0
INSERT
  8
MA_NCLEGEND-1-2
  2
FIGURE_CROSS
 10
71.020000
 20
-75.660000
 41
0.300000
 42
0.300000
 50
0.000000
  0
INSERT
  8
MA_NCLEGEND-1-2
  2
FIGURE_CROSS
 10
71.200000
 20
-79.750000
 41
0.300000
 42
0.300000
 50
0.000000
  0
INSERT
  8
MA_NCLEGEND-1-2
  2
FIGURE_CROSS
 10
73.520000
 20
-77.560000
 41
0.300000
 42
0.300000
 50
0.000000
  0
INSERT
  8
MA_NCLEGEND-1-2
  2
FIGURE_CROSS
 10
76.090000
 20
-88.130000
 41
0.300000
 42
0.300000
 50
0.000000
  0
INSERT
  8
MA_NCLEGEND-1-2
  2
FIGURE_CROSS
 10
79.190000
 20
-88.430000
 41
0.300000
 42
0.300000
 50
0.000000
  0
INSERT
  8
MA_NCLEGEND-1-2
  2
FIGURE_CROSS
 10
78.360000
 20
-82.860000
 41
0.300000
 42
0.300000
 50
0.000000
  0
INSERT
  8
MA_NCLEGEND-1-2
  2
FIGURE_CROSS
 10
76.090000
 20
-91.560000
 41
0.300000
 42
0.300000
 50
0.000000
  0
INSERT
  8
MA_NCLEGEND-1-2
  2
FIGURE_CROSS
 10
77.380000
 20
-94.890000
 41
0.300000
 42
0.300000
 50
0.000000
  0
INSERT
  8
MA_NCLEGEND-1-2
  2
FIGURE_CROSS
 10
73.460000
 20
-95.050000
 41
0.300000
 42
0.300000
 50
0.000000
  0
INSERT
  8
MA_NCLEGEND-1-2
  2
FIGURE_CROSS
 10
72.830000
 20
-99.720000
 41
0.300000
 42
0.300000
 50
0.000000
  0
INSERT
  8
MA_NCLEGEND-1-2
  2
FIGURE_CROSS
 10
73.220000
 20
-103.340000
 41
0.300000
 42
0.300000
 50
0.000000
  0
INSERT
  8
MA_NCLEGEND-1-2
  2
FIGURE_CROSS
 10
74.540000
 20
-104.490000
 41
0.300000
 42
0.300000
 50
0.000000
  0
INSERT
  8
MA_NCLEGEND-1-2
  2
FIGURE_CROSS
 10
78.460000
 20
-100.460000
 41
0.300000
 42
0.300000
 50
0.000000
  0
INSERT
  8
MA_NCLEGEND-1-2
  2
FIGURE_CROSS
 10
79.530000
 20
-100.290000
 41
0.300000
 42
0.300000
 50
0.000000
  0
INSERT
  8
MA_NCLEGEND-1-2
  2
FIGURE_CROSS
 10
83.950000
 20
-102.710000
 41
0.300000
 42
0.300000
 50
0.000000
  0
INSERT
  8
MA_NCLEGEND-1-2
  2
FIGURE_CROSS
 10
85.070000
 20
-105.150000
 41
0.300000
 42
0.300000
 50
0.000000
  0
INSERT
  8
MA_NCLEGEND-1-2
  2
FIGURE_CROSS
 10
82.860000
 20
-104.720000
 41
0.300000
 42
0.300000
 50
0.000000
  0
INSERT
  8
MA_NCLEGEND-1-2
  2
FIGURE_CROSS
 10
86.220000
 20
-104.060000
 41
0.300000
 42
0.300000
 50
0.000000
  0
INSERT
  8
MA_NCLEGEND-1-2
  2
FIGURE_CROSS
 10
82.760000
 20
-116.650000
 41
0.300000
 42
0.300000
 50
0.000000
  0
INSERT
  8
MA_NCLEGEND-1-2
  2
FIGURE_CROSS
 10
87.510000
 20
-118.690000
 41
0.300000
 42
0.300000
 50
0.000000
  0
INSERT
  8
MA_NCLEGEND-1-2
  2
FIGURE_CROSS
 10
110.970000
 20
-104.200000
 41
0.300000
 42
0.300000
 50
0.000000
  0
INSERT
  8
MA_NCLEGEND-1-2
  2
FIGURE_CROSS
 10
126.780000
 20
-103.800000
 41
0.300000
 42
0.300000
 50
0.000000
  0
INSERT
  8
MA_NCLEGEND-1-2
  2
FIGURE_CROSS
 10
138.780000
 20
-102.220000
 41
0.300000
 42
0.300000
 50
0.000000
  0
INSERT
  8
MA_NCLEGEND-1-2
  2
FIGURE_CROSS
 10
124.210000
 20
-82.050000
 41
0.300000
 42
0.300000
 50
0.000000
  0
INSERT
  8
MA_NCLEGEND-1-2
  2
FIGURE_CROSS
 10
123.820000
 20
-89.370000
 41
0.300000
 42
0.300000
 50
0.000000
  0
INSERT
  8
MA_NCLEGEND-1-2
  2
FIGURE_CROSS
 10
95.190000
 20
-70.690000
 41
0.300000
 42
0.300000
 50
0.000000
  0
INSERT
  8
MA_NCLEGEND-1-2
  2
FIGURE_CROSS
 10
94.230000
 20
-73.720000
 41
0.300000
 42
0.300000
 50
0.000000
  0
INSERT
  8
MA_NCLEGEND-1-2
  2
FIGURE_CROSS
 10
99.470000
 20
-72.600000
 41
0.300000
 42
0.300000
 50
0.000000
  0
INSERT
  8
MA_NCLEGEND-1-2
  2
FIGURE_CROSS
 10
98.910000
 20
-76.160000
 41
0.300000
 42
0.300000
 50
0.000000
  0
INSERT
  8
MA_NCLEGEND-1-2
  2
FIGURE_CROSS
 10
94.430000
 20
-76.090000
 41
0.300000
 42
0.300000
 50
0.000000
  0
INSERT
  8
MA_NCLEGEND-1-2
  2
FIGURE_CROSS
 10
83.870000
 20
-78.790000
 41
0.300000
 42
0.300000
 50
0.000000
  0
INSERT
  8
MA_NCLEGEND-1-2
  2
FIGURE_CROSS
 10
83.160000
 20
-80.030000
 41
0.300000
 42
0.300000
 50
0.000000
  0
INSERT
  8
MA_NCLEGEND-1-2
  2
FIGURE_CROSS
 10
94.200000
 20
-79.710000
 41
0.300000
 42
0.300000
 50
0.000000
  0
INSERT
  8
MA_NCLEGEND-1-2
  2
FIGURE_CROSS
 10
96.290000
 20
-80.160000
 41
0.300000
 42
0.300000
 50
0.000000
  0
INSERT
  8
MA_NCLEGEND-1-2
  2
FIGURE_CROSS
 10
82.380000
 20
-70.920000
 41
0.300000
 42
0.300000
 50
0.000000
  0
INSERT
  8
MA_NCLEGEND-1-2
  2
FIGURE_CROSS
 10
82.290000
 20
-72.320000
 41
0.300000
 42
0.300000
 50
0.000000
  0
INSERT
  8
MA_NCLEGEND-1-2
  2
FIGURE_CROSS
 10
79.450000
 20
-72.860000
 41
0.300000
 42
0.300000
 50
0.000000
  0
INSERT
  8
MA_NCLEGEND-1-2
  2
FIGURE_CROSS
 10
84.380000
 20
-87.800000
 41
0.300000
 42
0.300000
 50
0.000000
  0
INSERT
  8
MA_NCLEGEND-1-2
  2
FIGURE_CROSS
 10
84.770000
 20
-89.980000
 41
0.300000
 42
0.300000
 50
0.000000
  0
INSERT
  8
MA_NCLEGEND-1-2
  2
FIGURE_CROSS
 10
81.870000
 20
-86.450000
 41
0.300000
 42
0.300000
 50
0.000000
  0
INSERT
  8
MA_NCLEGEND-1-2
  2
FIGURE_CROSS
 10
89.090000
 20
-85.280000
 41
0.300000
 42
0.300000
 50
0.000000
  0
INSERT
  8
MA_NCLEGEND-1-2
  2
FIGURE_CROSS
 10
87.710000
 20
-85.430000
 41
0.300000
 42
0.300000
 50
0.000000
  0
INSERT
  8
MA_NCLEGEND-1-2
  2
FIGURE_CROSS
 10
89.210000
 20
-86.340000
 41
0.300000
 42
0.300000
 50
0.000000
  0
INSERT
  8
MA_NCLEGEND-1-2
  2
FIGURE_CROSS
 10
91.610000
 20
-86.060000
 41
0.300000
 42
0.300000
 50
0.000000
  0
INSERT
  8
MA_NCLEGEND-1-2
  2
FIGURE_CROSS
 10
92.600000
 20
-86.500000
 41
0.300000
 42
0.300000
 50
0.000000
  0
INSERT
  8
MA_NCLEGEND-1-2
  2
FIGURE_CROSS
 10
92.950000
 20
-87.660000
 41
0.300000
 42
0.300000
 50
0.000000
  0
INSERT
  8
MA_NCLEGEND-1-2
  2
FIGURE_CROSS
 10
93.080000
 20
-91.440000
 41
0.300000
 42
0.300000
 50
0.000000
  0
INSERT
  8
MA_NCLEGEND-1-2
  2
FIGURE_CROSS
 10
93.930000
 20
-91.740000
 41
0.300000
 42
0.300000
 50
0.000000
  0
INSERT
  8
MA_NCLEGEND-1-2
  2
FIGURE_CROSS
 10
92.450000
 20
-91.050000
 41
0.300000
 42
0.300000
 50
0.000000
  0
INSERT
  8
MA_NCLEGEND-1-2
  2
FIGURE_CROSS
 10
89.020000
 20
-90.830000
 41
0.300000
 42
0.300000
 50
0.000000
  0
INSERT
  8
MA_NCLEGEND-1-2
  2
FIGURE_CROSS
 10
89.060000
 20
-92.020000
 41
0.300000
 42
0.300000
 50
0.000000
  0
INSERT
  8
MA_NCLEGEND-1-2
  2
FIGURE_CROSS
 10
95.420000
 20
-93.850000
 41
0.300000
 42
0.300000
 50
0.000000
  0
INSERT
  8
MA_NCLEGEND-1-2
  2
FIGURE_CROSS
 10
81.150000
 20
-94.230000
 41
0.300000
 42
0.300000
 50
0.000000
  0
INSERT
  8
MA_NCLEGEND-1-2
  2
FIGURE_CROSS
 10
80.920000
 20
-95.650000
 41
0.300000
 42
0.300000
 50
0.000000
  0
INSERT
  8
MA_NCLEGEND-1-2
  2
FIGURE_CROSS
 10
75.190000
 20
-90.110000
 41
0.300000
 42
0.300000
 50
0.000000
  0
INSERT
  8
MA_NCLEGEND-1-2
  2
FIGURE_CROSS
 10
108.460000
 20
-99.800000
 41
0.300000
 42
0.300000
 50
0.000000
  0
INSERT
  8
MA_NCLEGEND-1-2
  2
FIGURE_CROSS
 10
108.530000
 20
-105.070000
 41
0.300000
 42
0.300000
 50
0.000000
  0
INSERT
  8
MA_NCLEGEND-1-2
  2
FIGURE_CROSS
 10
94.540000
 20
-101.230000
 41
0.300000
 42
0.300000
 50
0.000000
  0
INSERT
  8
MA_NCLEGEND-1-2
  2
FIGURE_CROSS
 10
95.220000
 20
-100.510000
 41
0.300000
 42
0.300000
 50
0.000000
  0
INSERT
  8
MA_NCLEGEND-1-2
  2
FIGURE_CROSS
 10
94.970000
 20
-101.810000
 41
0.300000
 42
0.300000
 50
0.000000
  0
INSERT
  8
MA_NCLEGEND-1-2
  2
FIGURE_CROSS
 10
99.500000
 20
-104.310000
 41
0.300000
 42
0.300000
 50
0.000000
  0
INSERT
  8
MA_NCLEGEND-1-2
  2
FIGURE_CROSS
 10
99.440000
 20
-105.500000
 41
0.300000
 42
0.300000
 50
0.000000
  0
INSERT
  8
MA_NCLEGEND-1-2
  2
FIGURE_CROSS
 10
98.530000
 20
-106.650000
 41
0.300000
 42
0.300000
 50
0.000000
  0
INSERT
  8
MA_NCLEGEND-1-2
  2
FIGURE_CROSS
 10
90.080000
 20
-108.120000
 41
0.300000
 42
0.300000
 50
0.000000
  0
INSERT
  8
MA_NCLEGEND-1-2
  2
FIGURE_CROSS
 10
90.560000
 20
-109.190000
 41
0.300000
 42
0.300000
 50
0.000000
  0
INSERT
  8
MA_NCLEGEND-1-2
  2
FIGURE_CROSS
 10
88.320000
 20
-109.630000
 41
0.300000
 42
0.300000
 50
0.000000
  0
INSERT
  8
MA_NCLEGEND-1-2
  2
FIGURE_CROSS
 10
89.220000
 20
-110.510000
 41
0.300000
 42
0.300000
 50
0.000000
  0
INSERT
  8
MA_NCLEGEND-1-2
  2
FIGURE_CROSS
 10
88.500000
 20
-114.950000
 41
0.300000
 42
0.300000
 50
0.000000
  0
INSERT
  8
MA_NCLEGEND-1-2
  2
FIGURE_CROSS
 10
96.400000
 20
-113.830000
 41
0.300000
 42
0.300000
 50
0.000000
  0
INSERT
  8
MA_NCLEGEND-1-2
  2
FIGURE_CROSS
 10
99.830000
 20
-119.300000
 41
0.300000
 42
0.300000
 50
0.000000
  0
INSERT
  8
MA_NCLEGEND-1-2
  2
FIGURE_CROSS
 10
109.190000
 20
-119.110000
 41
0.300000
 42
0.300000
 50
0.000000
  0
INSERT
  8
MA_NCLEGEND-1-2
  2
FIGURE_CROSS
 10
125.800000
 20
-116.340000
 41
0.300000
 42
0.300000
 50
0.000000
  0
INSERT
  8
MA_NCLEGEND-1-2
  2
FIGURE_CROSS
 10
143.460000
 20
-116.340000
 41
0.300000
 42
0.300000
 50
0.000000
  0
INSERT
  8
MA_NCLEGEND-1-2
  2
FIGURE_CROSS
 10
149.650000
 20
-111.460000
 41
0.300000
 42
0.300000
 50
0.000000
  0
INSERT
  8
MA_NCLEGEND-1-2
  2
FIGURE_CROSS
 10
143.000000
 20
-63.620000
 41
0.300000
 42
0.300000
 50
0.000000
  0
INSERT
  8
MA_NCLEGEND-1-2
  2
FIGURE_CROSS
 10
146.220000
 20
-65.990000
 41
0.300000
 42
0.300000
 50
0.000000
  0
INSERT
  8
MA_NCLEGEND-1-2
  2
FIGURE_CROSS
 10
138.190000
 20
-69.090000
 41
0.300000
 42
0.300000
 50
0.000000
  0
INSERT
  8
MA_NCLEGEND-1-2
  2
FIGURE_CROSS
 10
140.890000
 20
-74.290000
 41
0.300000
 42
0.300000
 50
0.000000
  0
INSERT
  8
MA_NCLEGEND-1-2
  2
FIGURE_CROSS
 10
132.190000
 20
-69.480000
 41
0.300000
 42
0.300000
 50
0.000000
  0
INSERT
  8
MA_NCLEGEND-1-2
  2
FIGURE_CROSS
 10
126.850000
 20
-70.540000
 41
0.300000
 42
0.300000
 50
0.000000
  0
INSERT
  8
MA_NCLEGEND-1-2
  2
FIGURE_CROSS
 10
114.790000
 20
-62.760000
 41
0.300000
 42
0.300000
 50
0.000000
  0
INSERT
  8
MA_NCLEGEND-1-2
  2
FIGURE_CROSS
 10
109.260000
 20
-61.640000
 41
0.300000
 42
0.300000
 50
0.000000
  0
INSERT
  8
MA_NCLEGEND-1-2
  2
FIGURE_CROSS
 10
117.360000
 20
-60.780000
 41
0.300000
 42
0.300000
 50
0.000000
  0
INSERT
  8
MA_NCLEGEND-1-2
  2
FIGURE_CROSS
 10
80.060000
 20
-61.770000
 41
0.300000
 42
0.300000
 50
0.000000
  0
INSERT
  8
MA_NCLEGEND-1-2
  2
FIGURE_CROSS
 10
83.220000
 20
-60.980000
 41
0.300000
 42
0.300000
 50
0.000000
  0
INSERT
  8
MA_NCLEGEND-1-2
  2
FIGURE_CROSS
 10
84.540000
 20
-63.020000
 41
0.300000
 42
0.300000
 50
0.000000
  0
INSERT
  8
MA_NCLEGEND-1-2
  2
FIGURE_CROSS
 10
65.560000
 20
-69.220000
 41
0.300000
 42
0.300000
 50
0.000000
  0
INSERT
  8
MA_NCLEGEND-1-2
  2
FIGURE_CROSS
 10
64.460000
 20
-66.930000
 41
0.300000
 42
0.300000
 50
0.000000
  0
INSERT
  8
MA_NCLEGEND-1-2
  2
FIGURE_CROSS
 10
64.770000
 20
-61.590000
 41
0.300000
 42
0.300000
 50
0.000000
  0
INSERT
  8
MA_NCLEGEND-1-2
  2
FIGURE_CROSS
 10
67.900000
 20
-60.640000
 41
0.300000
 42
0.300000
 50
0.000000
  0
INSERT
  8
MA_NCLEGEND-1-2
  2
FIGURE_CROSS
 10
70.540000
 20
-60.870000
 41
0.300000
 42
0.300000
 50
0.000000
  0
INSERT
  8
MA_NCLEGEND-1-2
  2
FIGURE_CROSS
 10
74.230000
 20
-60.700000
 41
0.300000
 42
0.300000
 50
0.000000
  0
INSERT
  8
MA_NCLEGEND-1-2
  2
FIGURE_CROSS
 10
77.000000
 20
-61.290000
 41
0.300000
 42
0.300000
 50
0.000000
  0
INSERT
  8
MA_NCLEGEND-1-2
  2
FIGURE_CROSS
 10
78.150000
 20
-62.480000
 41
0.300000
 42
0.300000
 50
0.000000
  0
INSERT
  8
MA_NCLEGEND-1-2
  2
FIGURE_CROSS
 10
76.070000
 20
-64.290000
 41
0.300000
 42
0.300000
 50
0.000000
  0
INSERT
  8
MA_NCLEGEND-1-2
  2
FIGURE_CROSS
 10
74.860000
 20
-67.030000
 41
0.300000
 42
0.300000
 50
0.000000
  0
INSERT
  8
MA_NCLEGEND-1-2
  2
FIGURE_CROSS
 10
76.500000
 20
-67.620000
 41
0.300000
 42
0.300000
 50
0.000000
  0
INSERT
  8
MA_NCLEGEND-1-2
  2
FIGURE_CROSS
 10
65.840000
 20
-74.330000
 41
0.300000
 42
0.300000
 50
0.000000
  0
INSERT
  8
MA_NCLEGEND-1-2
  2
FIGURE_CROSS
 10
65.220000
 20
-77.820000
 41
0.300000
 42
0.300000
 50
0.000000
  0
INSERT
  8
MA_NCLEGEND-1-2
  2
FIGURE_CROSS
 10
66.470000
 20
-87.180000
 41
0.300000
 42
0.300000
 50
0.000000
  0
INSERT
  8
MA_NCLEGEND-1-2
  2
FIGURE_CROSS
 10
66.470000
 20
-91.790000
 41
0.300000
 42
0.300000
 50
0.000000
  0
INSERT
  8
MA_NCLEGEND-1-2
  2
FIGURE_CROSS
 10
75.170000
 20
-88.820000
 41
0.300000
 42
0.300000
 50
0.000000
  0
POLYLINE
  8
BG_DIMENSION
 66
1
 70
1
 40
0.000000
 41
0.000000
 39
0.000000
  0
VERTEX
  8
BG_DIMENSION
 10
167.725000
 20
-62.250000
 40
0.000000
 41
0.000000
 42
0.000000
  0
VERTEX
  8
BG_DIMENSION
 10
167.100000
 20
-58.250000
 40
0.000000
 41
0.000000
 42
0.000000
  0
VERTEX
  8
BG_DIMENSION
 10
166.475000
 20
-62.250000
 40
0.000000
 41
0.000000
 42
0.000000
  0
SEQEND
  0
POLYLINE
  8
BG_DIMENSION
 66
1
 70
0
 40
0.000000
 41
0.000000
 39
0.000000
  0
VERTEX
  8
BG_DIMENSION
 10
167.100000
 20
-90.171300
 40
0.000000
 41
0.000000
 42
0.000000
  0
VERTEX
  8
BG_DIMENSION
 10
167.100000
 20
-58.250000
 40
0.000000
 41
0.000000
 42
0.000000
  0
SEQEND
  0
POLYLINE
  8
BG_DIMENSION
 66
1
 70
1
 40
0.000000
 41
0.000000
 39
0.000000
  0
VERTEX
  8
BG_DIMENSION
 10
166.475000
 20
-122.250000
 40
0.000000
 41
0.000000
 42
0.000000
  0
VERTEX
  8
BG_DIMENSION
 10
167.100000
 20
-126.250000
 40
0.000000
 41
0.000000
 42
0.000000
  0
VERTEX
  8
BG_DIMENSION
 10
167.725000
 20
-122.250000
 40
0.000000
 41
0.000000
 42
0.000000
  0
SEQEND
  0
POLYLINE
  8
BG_DIMENSION
 66
1
 70
0
 40
0.000000
 41
0.000000
 39
0.000000
  0
VERTEX
  8
BG_DIMENSION
 10
167.100000
 20
-98.208700
 40
0.000000
 41
0.000000
 42
0.000000
  0
VERTEX
  8
BG_DIMENSION
 10
167.100000
 20
-126.250000
 40
0.000000
 41
0.000000
 42
0.000000
  0
SEQEND
  0
POLYLINE
  8
BG_DIMENSION
 66
1
 70
0
 40
0.000000
 41
0.000000
 39
0.000000
  0
VERTEX
  8
BG_DIMENSION
 10
153.580000
 20
-126.250000
 40
0.000000
 41
0.000000
 42
0.000000
  0
VERTEX
  8
BG_DIMENSION
 10
169.600000
 20
-126.250000
 40
0.000000
 41
0.000000
 42
0.000000
  0
SEQEND
  0
POLYLINE
  8
BG_DIMENSION
 66
1
 70
0
 40
0.000000
 41
0.000000
 39
0.000000
  0
VERTEX
  8
BG_DIMENSION
 10
153.580000
 20
-58.250000
 40
0.000000
 41
0.000000
 42
0.000000
  0
VERTEX
  8
BG_DIMENSION
 10
169.600000
 20
-58.250000
 40
0.000000
 41
0.000000
 42
0.000000
  0
SEQEND
  0
TEXT
  8
BG_DIMENSION
 10
159.619700
 20
-95.777500
 11
0.000000
 21
0.000000
 40
3.175000
 41
0.992000
 50
0.000000
  7
STANDARD
 71
0
 72
0
  1
68.00
 73
0
  0
POLYLINE
  8
BG_DIMENSION
 66
1
 70
1
 40
0.000000
 41
0.000000
 39
0.000000
  0
VERTEX
  8
BG_DIMENSION
 10
147.080000
 20
-52.495000
 40
0.000000
 41
0.000000
 42
0.000000
  0
VERTEX
  8
BG_DIMENSION
 10
151.080000
 20
-51.870000
 40
0.000000
 41
0.000000
 42
0.000000
  0
VERTEX
  8
BG_DIMENSION
 10
147.080000
 20
-51.245000
 40
0.000000
 41
0.000000
 42
0.000000
  0
SEQEND
  0
POLYLINE
  8
BG_DIMENSION
 66
1
 70
0
 40
0.000000
 41
0.000000
 39
0.000000
  0
VERTEX
  8
BG_DIMENSION
 10
112.581500
 20
-51.870000
 40
0.000000
 41
0.000000
 42
0.000000
  0
VERTEX
  8
BG_DIMENSION
 10
151.080000
 20
-51.870000
 40
0.000000
 41
0.000000
 42
0.000000
  0
SEQEND
  0
POLYLINE
  8
BG_DIMENSION
 66
1
 70
1
 40
0.000000
 41
0.000000
 39
0.000000
  0
VERTEX
  8
BG_DIMENSION
 10
67.850000
 20
-51.245000
 40
0.000000
 41
0.000000
 42
0.000000
  0
VERTEX
  8
BG_DIMENSION
 10
63.850000
 20
-51.870000
 40
0.000000
 41
0.000000
 42
0.000000
  0
VERTEX
  8
BG_DIMENSION
 10
67.850000
 20
-52.495000
 40
0.000000
 41
0.000000
 42
0.000000
  0
SEQEND
  0
POLYLINE
  8
BG_DIMENSION
 66
1
 70
0
 40
0.000000
 41
0.000000
 39
0.000000
  0
VERTEX
  8
BG_DIMENSION
 10
92.758500
 20
-51.870000
 40
0.000000
 41
0.000000
 42
0.000000
  0
VERTEX
  8
BG_DIMENSION
 10
63.850000
 20
-51.870000
 40
0.000000
 41
0.000000
 42
0.000000
  0
SEQEND
  0
POLYLINE
  8
BG_DIMENSION
 66
1
 70
0
 40
0.000000
 41
0.000000
 39
0.000000
  0
VERTEX
  8
BG_DIMENSION
 10
151.080000
 20
-55.750000
 40
0.000000
 41
0.000000
 42
0.000000
  0
VERTEX
  8
BG_DIMENSION
 10
151.080000
 20
-49.370000
 40
0.000000
 41
0.000000
 42
0.000000
  0
SEQEND
  0
POLYLINE
  8
BG_DIMENSION
 66
1
 70
0
 40
0.000000
 41
0.000000
 39
0.000000
  0
VERTEX
  8
BG_DIMENSION
 10
63.850000
 20
-58.520000
 40
0.000000
 41
0.000000
 42
0.000000
  0
VERTEX
  8
BG_DIMENSION
 10
63.850000
 20
-49.370000
 40
0.000000
 41
0.000000
 42
0.000000
  0
SEQEND
  0
TEXT
  8
BG_DIMENSION
 10
95.189700
 20
-53.457500
 11
0.000000
 21
0.000000
 40
3.175000
 41
0.992000
 50
0.000000
  7
STANDARD
 71
0
 72
0
  1
87.23
 73
0
  0
POLYLINE
  8
PIN_TOP
 66
1
 70
1
 40
0.000000
 41
0.000000
 39
0.000000
  0
VERTEX
  8
PIN_TOP
 10
104.450000
 20
-68.250000
 40
0.000000
 41
0.000000
 42
0.000000
  0
VERTEX
  8
PIN_TOP
 10
104.450000
 20
-66.550000
 40
0.000000
 41
0.000000
 42
1.000000
  0
VERTEX
  8
PIN_TOP
 10
102.650000
 20
-66.550000
 40
0.000000
 41
0.000000
 42
0.000000
  0
VERTEX
  8
PIN_TOP
 10
102.650000
 20
-68.250000
 40
0.000000
 41
0.000000
 42
1.000000
  0
SEQEND
  0
INSERT
  8
MA_NCLEGEND-1-2
  2
FIGURE_OBLONG
 10
103.550000
 20
-67.400000
 41
2.200000
 42
0.600000
 50
90.000000
  0
TEXT
  8
MA_NCLEGEND-1-2
 10
103.350000
 20
-67.550000
 11
103.550000
 21
-67.400000
 40
0.300000
 41
1.000000
 50
0.000000
  7
STANDARD
 71
0
 72
1
  1
OD
 73
2
  0
CIRCLE
  8
PIN_TOP
 10
88.030000
 20
-67.925000
 40
0.300000
  0
INSERT
  8
MA_NCLEGEND-1-2
  2
FIGURE_HEX
 10
88.030000
 20
-67.925000
 41
0.890000
 42
0.890000
 50
0.000000
  0
TEXT
  8
MA_NCLEGEND-1-2
 10
87.733333
 20
-68.147500
 11
88.030000
 21
-67.925000
 40
0.445000
 41
1.000000
 50
0.000000
  7
STANDARD
 71
0
 72
1
  1
D
 73
2
  0
CIRCLE
  8
PIN_TOP
 10
72.850000
 20
-64.210000
 40
0.300000
  0
INSERT
  8
MA_NCLEGEND-1-2
  2
FIGURE_HEX
 10
72.850000
 20
-64.210000
 41
0.890000
 42
0.890000
 50
0.000000
  0
TEXT
  8
MA_NCLEGEND-1-2
 10
72.553333
 20
-64.432500
 11
72.850000
 21
-64.210000
 40
0.445000
 41
1.000000
 50
0.000000
  7
STANDARD
 71
0
 72
1
  1
D
 73
2
  0
POLYLINE
  8
PIN_TOP
 66
1
 70
1
 40
0.000000
 41
0.000000
 39
0.000000
  0
VERTEX
  8
PIN_TOP
 10
73.680000
 20
-66.260000
 40
0.000000
 41
0.000000
 42
0.000000
  0
VERTEX
  8
PIN_TOP
 10
73.180000
 20
-66.260000
 40
0.000000
 41
0.000000
 42
0.000000
  0
VERTEX
  8
PIN_TOP
 10
73.180000
 20
-66.560000
 40
0.000000
 41
0.000000
 42
0.000000
  0
VERTEX
  8
PIN_TOP
 10
73.680000
 20
-66.560000
 40
0.000000
 41
0.000000
 42
0.000000
  0
SEQEND
  0
INSERT
  8
MA_NCLEGEND-1-2
  2
FIGURE_SQUARE
 10
73.430000
 20
-66.410000
 41
0.300000
 42
0.500000
 50
90.000000
  0
POLYLINE
  8
PIN_TOP
 66
1
 70
1
 40
0.000000
 41
0.000000
 39
0.000000
  0
VERTEX
  8
PIN_TOP
 10
71.550000
 20
-66.260000
 40
0.000000
 41
0.000000
 42
0.000000
  0
VERTEX
  8
PIN_TOP
 10
71.050000
 20
-66.260000
 40
0.000000
 41
0.000000
 42
0.000000
  0
VERTEX
  8
PIN_TOP
 10
71.050000
 20
-66.560000
 40
0.000000
 41
0.000000
 42
0.000000
  0
VERTEX
  8
PIN_TOP
 10
71.550000
 20
-66.560000
 40
0.000000
 41
0.000000
 42
0.000000
  0
SEQEND
  0
INSERT
  8
MA_NCLEGEND-1-2
  2
FIGURE_SQUARE
 10
71.300000
 20
-66.410000
 41
0.300000
 42
0.500000
 50
90.000000
  0
POLYLINE
  8
PIN_TOP
 66
1
 70
1
 40
0.000000
 41
0.000000
 39
0.000000
  0
VERTEX
  8
PIN_TOP
 10
69.050000
 20
-66.260000
 40
0.000000
 41
0.000000
 42
0.000000
  0
VERTEX
  8
PIN_TOP
 10
68.550000
 20
-66.260000
 40
0.000000
 41
0.000000
 42
0.000000
  0
VERTEX
  8
PIN_TOP
 10
68.550000
 20
-66.560000
 40
0.000000
 41
0.000000
 42
0.000000
  0
VERTEX
  8
PIN_TOP
 10
69.050000
 20
-66.560000
 40
0.000000
 41
0.000000
 42
0.000000
  0
SEQEND
  0
INSERT
  8
MA_NCLEGEND-1-2
  2
FIGURE_SQUARE
 10
68.800000
 20
-66.410000
 41
0.300000
 42
0.500000
 50
90.000000
  0
POLYLINE
  8
PIN_TOP
 66
1
 70
1
 40
0.000000
 41
0.000000
 39
0.000000
  0
VERTEX
  8
PIN_TOP
 10
66.930000
 20
-66.260000
 40
0.000000
 41
0.000000
 42
0.000000
  0
VERTEX
  8
PIN_TOP
 10
66.430000
 20
-66.260000
 40
0.000000
 41
0.000000
 42
0.000000
  0
VERTEX
  8
PIN_TOP
 10
66.430000
 20
-66.560000
 40
0.000000
 41
0.000000
 42
0.000000
  0
VERTEX
  8
PIN_TOP
 10
66.930000
 20
-66.560000
 40
0.000000
 41
0.000000
 42
0.000000
  0
SEQEND
  0
INSERT
  8
MA_NCLEGEND-1-2
  2
FIGURE_SQUARE
 10
66.680000
 20
-66.410000
 41
0.300000
 42
0.500000
 50
90.000000
  0
POLYLINE
  8
PIN_TOP
 66
1
 70
1
 40
0.000000
 41
0.000000
 39
0.000000
  0
VERTEX
  8
PIN_TOP
 10
73.475000
 20
-65.160000
 40
0.000000
 41
0.000000
 42
0.000000
  0
VERTEX
  8
PIN_TOP
 10
73.825000
 20
-65.160000
 40
0.000000
 41
0.000000
 42
1.000000
  0
VERTEX
  8
PIN_TOP
 10
73.825000
 20
-64.560000
 40
0.000000
 41
0.000000
 42
0.000000
  0
VERTEX
  8
PIN_TOP
 10
73.475000
 20
-64.560000
 40
0.000000
 41
0.000000
 42
1.000000
  0
SEQEND
  0
INSERT
  8
MA_NCLEGEND-1-2
  2
FIGURE_OBLONG
 10
73.650000
 20
-64.860000
 41
0.600000
 42
0.950000
 50
90.000000
  0
CIRCLE
  8
PIN_TOP
 10
66.450000
 20
-64.860000
 40
0.300000
  0
CIRCLE
  8
PIN_TOP
 10
67.180000
 20
-64.210000
 40
0.300000
  0
INSERT
  8
MA_NCLEGEND-1-2
  2
FIGURE_HEX
 10
67.180000
 20
-64.210000
 41
0.890000
 42
0.890000
 50
0.000000
  0
TEXT
  8
MA_NCLEGEND-1-2
 10
66.883333
 20
-64.432500
 11
67.180000
 21
-64.210000
 40
0.445000
 41
1.000000
 50
0.000000
  7
STANDARD
 71
0
 72
1
  1
D
 73
2
  0
CIRCLE
  8
PIN_TOP
 10
67.650000
 20
-63.510000
 40
0.300000
  0
INSERT
  8
MA_NCLEGEND-1-2
  2
FIGURE_HEX
 10
67.650000
 20
-63.510000
 41
0.890000
 42
0.890000
 50
0.000000
  0
TEXT
  8
MA_NCLEGEND-1-2
 10
67.353333
 20
-63.732500
 11
67.650000
 21
-63.510000
 40
0.445000
 41
1.000000
 50
0.000000
  7
STANDARD
 71
0
 72
1
  1
D
 73
2
  0
CIRCLE
  8
PIN_TOP
 10
68.450000
 20
-63.510000
 40
0.300000
  0
INSERT
  8
MA_NCLEGEND-1-2
  2
FIGURE_HEX
 10
68.450000
 20
-63.510000
 41
0.890000
 42
0.890000
 50
0.000000
  0
TEXT
  8
MA_NCLEGEND-1-2
 10
68.153333
 20
-63.732500
 11
68.450000
 21
-63.510000
 40
0.445000
 41
1.000000
 50
0.000000
  7
STANDARD
 71
0
 72
1
  1
D
 73
2
  0
CIRCLE
  8
PIN_TOP
 10
69.250000
 20
-63.510000
 40
0.300000
  0
INSERT
  8
MA_NCLEGEND-1-2
  2
FIGURE_HEX
 10
69.250000
 20
-63.510000
 41
0.890000
 42
0.890000
 50
0.000000
  0
TEXT
  8
MA_NCLEGEND-1-2
 10
68.953333
 20
-63.732500
 11
69.250000
 21
-63.510000
 40
0.445000
 41
1.000000
 50
0.000000
  7
STANDARD
 71
0
 72
1
  1
D
 73
2
  0
CIRCLE
  8
PIN_TOP
 10
68.780000
 20
-64.210000
 40
0.300000
  0
INSERT
  8
MA_NCLEGEND-1-2
  2
FIGURE_HEX
 10
68.780000
 20
-64.210000
 41
0.890000
 42
0.890000
 50
0.000000
  0
TEXT
  8
MA_NCLEGEND-1-2
 10
68.483333
 20
-64.432500
 11
68.780000
 21
-64.210000
 40
0.445000
 41
1.000000
 50
0.000000
  7
STANDARD
 71
0
 72
1
  1
D
 73
2
  0
CIRCLE
  8
PIN_TOP
 10
69.580000
 20
-64.210000
 40
0.300000
  0
INSERT
  8
MA_NCLEGEND-1-2
  2
FIGURE_HEX
 10
69.580000
 20
-64.210000
 41
0.890000
 42
0.890000
 50
0.000000
  0
TEXT
  8
MA_NCLEGEND-1-2
 10
69.283333
 20
-64.432500
 11
69.580000
 21
-64.210000
 40
0.445000
 41
1.000000
 50
0.000000
  7
STANDARD
 71
0
 72
1
  1
D
 73
2
  0
CIRCLE
  8
PIN_TOP
 10
70.450000
 20
-64.210000
 40
0.300000
  0
INSERT
  8
MA_NCLEGEND-1-2
  2
FIGURE_HEX
 10
70.450000
 20
-64.210000
 41
0.890000
 42
0.890000
 50
0.000000
  0
TEXT
  8
MA_NCLEGEND-1-2
 10
70.153333
 20
-64.432500
 11
70.450000
 21
-64.210000
 40
0.445000
 41
1.000000
 50
0.000000
  7
STANDARD
 71
0
 72
1
  1
D
 73
2
  0
CIRCLE
  8
PIN_TOP
 10
71.250000
 20
-64.210000
 40
0.300000
  0
INSERT
  8
MA_NCLEGEND-1-2
  2
FIGURE_HEX
 10
71.250000
 20
-64.210000
 41
0.890000
 42
0.890000
 50
0.000000
  0
TEXT
  8
MA_NCLEGEND-1-2
 10
70.953333
 20
-64.432500
 11
71.250000
 21
-64.210000
 40
0.445000
 41
1.000000
 50
0.000000
  7
STANDARD
 71
0
 72
1
  1
D
 73
2
  0
CIRCLE
  8
PIN_TOP
 10
70.850000
 20
-63.510000
 40
0.300000
  0
INSERT
  8
MA_NCLEGEND-1-2
  2
FIGURE_HEX
 10
70.850000
 20
-63.510000
 41
0.890000
 42
0.890000
 50
0.000000
  0
TEXT
  8
MA_NCLEGEND-1-2
 10
70.553333
 20
-63.732500
 11
70.850000
 21
-63.510000
 40
0.445000
 41
1.000000
 50
0.000000
  7
STANDARD
 71
0
 72
1
  1
D
 73
2
  0
CIRCLE
  8
PIN_TOP
 10
71.650000
 20
-63.510000
 40
0.300000
  0
INSERT
  8
MA_NCLEGEND-1-2
  2
FIGURE_HEX
 10
71.650000
 20
-63.510000
 41
0.890000
 42
0.890000
 50
0.000000
  0
TEXT
  8
MA_NCLEGEND-1-2
 10
71.353333
 20
-63.732500
 11
71.650000
 21
-63.510000
 40
0.445000
 41
1.000000
 50
0.000000
  7
STANDARD
 71
0
 72
1
  1
D
 73
2
  0
CIRCLE
  8
PIN_TOP
 10
72.450000
 20
-63.510000
 40
0.300000
  0
INSERT
  8
MA_NCLEGEND-1-2
  2
FIGURE_HEX
 10
72.450000
 20
-63.510000
 41
0.890000
 42
0.890000
 50
0.000000
  0
TEXT
  8
MA_NCLEGEND-1-2
 10
72.153333
 20
-63.732500
 11
72.450000
 21
-63.510000
 40
0.445000
 41
1.000000
 50
0.000000
  7
STANDARD
 71
0
 72
1
  1
D
 73
2
  0
POLYLINE
  8
PIN_TOP
 66
1
 70
1
 40
0.000000
 41
0.000000
 39
0.000000
  0
VERTEX
  8
PIN_TOP
 10
75.040000
 20
-59.520000
 40
0.000000
 41
0.000000
 42
0.000000
  0
VERTEX
  8
PIN_TOP
 10
75.040000
 20
-58.920000
 40
0.000000
 41
0.000000
 42
1.000000
  0
VERTEX
  8
PIN_TOP
 10
74.040000
 20
-58.920000
 40
0.000000
 41
0.000000
 42
0.000000
  0
VERTEX
  8
PIN_TOP
 10
74.040000
 20
-59.520000
 40
0.000000
 41
0.000000
 42
1.000000
  0
SEQEND
  0
INSERT
  8
MA_NCLEGEND-1-2
  2
FIGURE_OBLONG
 10
74.540000
 20
-59.220000
 41
1.100000
 42
0.500000
 50
90.000000
  0
TEXT
  8
MA_NCLEGEND-1-2
 10
74.373333
 20
-59.345000
 11
74.540000
 21
-59.220000
 40
0.250000
 41
1.000000
 50
0.000000
  7
STANDARD
 71
0
 72
1
  1
C
 73
2
  0
POLYLINE
  8
PIN_TOP
 66
1
 70
1
 40
0.000000
 41
0.000000
 39
0.000000
  0
VERTEX
  8
PIN_TOP
 10
66.060000
 20
-59.520000
 40
0.000000
 41
0.000000
 42
0.000000
  0
VERTEX
  8
PIN_TOP
 10
66.060000
 20
-58.920000
 40
0.000000
 41
0.000000
 42
1.000000
  0
VERTEX
  8
PIN_TOP
 10
65.060000
 20
-58.920000
 40
0.000000
 41
0.000000
 42
0.000000
  0
VERTEX
  8
PIN_TOP
 10
65.060000
 20
-59.520000
 40
0.000000
 41
0.000000
 42
1.000000
  0
SEQEND
  0
INSERT
  8
MA_NCLEGEND-1-2
  2
FIGURE_OBLONG
 10
65.560000
 20
-59.220000
 41
1.100000
 42
0.500000
 50
90.000000
  0
TEXT
  8
MA_NCLEGEND-1-2
 10
65.393333
 20
-59.345000
 11
65.560000
 21
-59.220000
 40
0.250000
 41
1.000000
 50
0.000000
  7
STANDARD
 71
0
 72
1
  1
C
 73
2
  0
POLYLINE
  8
PIN_TOP
 66
1
 70
1
 40
0.000000
 41
0.000000
 39
0.000000
  0
VERTEX
  8
PIN_TOP
 10
74.680000
 20
-63.910000
 40
0.000000
 41
0.000000
 42
0.000000
  0
VERTEX
  8
PIN_TOP
 10
74.680000
 20
-63.310000
 40
0.000000
 41
0.000000
 42
1.000000
  0
VERTEX
  8
PIN_TOP
 10
73.680000
 20
-63.310000
 40
0.000000
 41
0.000000
 42
0.000000
  0
VERTEX
  8
PIN_TOP
 10
73.680000
 20
-63.910000
 40
0.000000
 41
0.000000
 42
1.000000
  0
SEQEND
  0
INSERT
  8
MA_NCLEGEND-1-2
  2
FIGURE_OBLONG
 10
74.180000
 20
-63.610000
 41
1.100000
 42
0.500000
 50
90.000000
  0
TEXT
  8
MA_NCLEGEND-1-2
 10
74.013333
 20
-63.735000
 11
74.180000
 21
-63.610000
 40
0.250000
 41
1.000000
 50
0.000000
  7
STANDARD
 71
0
 72
1
  1
C
 73
2
  0
POLYLINE
  8
PIN_TOP
 66
1
 70
1
 40
0.000000
 41
0.000000
 39
0.000000
  0
VERTEX
  8
PIN_TOP
 10
66.420000
 20
-63.910000
 40
0.000000
 41
0.000000
 42
0.000000
  0
VERTEX
  8
PIN_TOP
 10
66.420000
 20
-63.310000
 40
0.000000
 41
0.000000
 42
1.000000
  0
VERTEX
  8
PIN_TOP
 10
65.420000
 20
-63.310000
 40
0.000000
 41
0.000000
 42
0.000000
  0
VERTEX
  8
PIN_TOP
 10
65.420000
 20
-63.910000
 40
0.000000
 41
0.000000
 42
1.000000
  0
SEQEND
  0
INSERT
  8
MA_NCLEGEND-1-2
  2
FIGURE_OBLONG
 10
65.920000
 20
-63.610000
 41
1.100000
 42
0.500000
 50
90.000000
  0
TEXT
  8
MA_NCLEGEND-1-2
 10
65.753333
 20
-63.735000
 11
65.920000
 21
-63.610000
 40
0.250000
 41
1.000000
 50
0.000000
  7
STANDARD
 71
0
 72
1
  1
C
 73
2
  0
CIRCLE
  8
PIN_TOP
 10
133.550100
 20
-85.000000
 40
1.993900
  0
INSERT
  8
MA_NCLEGEND-1-2
  2
FIGURE_TRI
 10
133.550100
 20
-85.000000
 41
3.987800
 42
3.987800
 50
0.000000
  0
CIRCLE
  8
PIN_TOP
 10
138.630100
 20
-85.000000
 40
0.850900
  0
INSERT
  8
MA_NCLEGEND-1-2
  2
FIGURE_OCT
 10
138.630100
 20
-85.000000
 41
1.701800
 42
1.701800
 50
0.000000
  0
CIRCLE
  8
PIN_TOP
 10
128.470100
 20
-85.000000
 40
0.850900
  0
INSERT
  8
MA_NCLEGEND-1-2
  2
FIGURE_OCT
 10
128.470100
 20
-85.000000
 41
1.701800
 42
1.701800
 50
0.000000
  0
CIRCLE
  8
PIN_TOP
 10
130.050100
 20
-82.400000
 40
1.500000
  0
INSERT
  8
MA_NCLEGEND-1-2
  2
FIGURE_DIAMOND
 10
130.050100
 20
-82.400000
 41
3.000000
 42
3.000000
 50
0.000000
  0
CIRCLE
  8
PIN_TOP
 10
136.400100
 20
-79.860000
 40
1.500000
  0
INSERT
  8
MA_NCLEGEND-1-2
  2
FIGURE_DIAMOND
 10
136.400100
 20
-79.860000
 41
3.000000
 42
3.000000
 50
0.000000
  0
POLYLINE
  8
PG_SILKSCREEN_TOP
 66
1
 70
1
 40
0.000000
 41
0.000000
 39
0.000000
  0
VERTEX
  8
PG_SILKSCREEN_TOP
 10
141.170100
 20
-92.620000
 40
0.300000
 41
0.300000
 42
0.000000
  0
VERTEX
  8
PG_SILKSCREEN_TOP
 10
125.930100
 20
-92.620000
 40
0.300000
 41
0.300000
 42
0.000000
  0
VERTEX
  8
PG_SILKSCREEN_TOP
 10
125.930100
 20
-77.380000
 40
0.300000
 41
0.300000
 42
0.000000
  0
VERTEX
  8
PG_SILKSCREEN_TOP
 10
141.170100
 20
-77.380000
 40
0.300000
 41
0.300000
 42
0.000000
  0
SEQEND
  0
POLYLINE
  8
PG_SILKSCREEN_TOP
 66
1
 70
1
 40
0.000000
 41
0.000000
 39
0.000000
  0
VERTEX
  8
PG_SILKSCREEN_TOP
 10
141.300100
 20
-78.600000
 40
0.300000
 41
0.300000
 42
0.000000
  0
VERTEX
  8
PG_SILKSCREEN_TOP
 10
141.300100
 20
-91.400000
 40
0.300000
 41
0.300000
 42
0.000000
  0
VERTEX
  8
PG_SILKSCREEN_TOP
 10
125.800100
 20
-91.400000
 40
0.300000
 41
0.300000
 42
0.000000
  0
VERTEX
  8
PG_SILKSCREEN_TOP
 10
125.800100
 20
-78.600000
 40
0.300000
 41
0.300000
 42
0.000000
  0
SEQEND
  0
CIRCLE
  8
PIN_TOP
 10
78.450000
 20
-71.140000
 40
1.500000
  0
INSERT
  8
MA_NCLEGEND-1-2
  2
FIGURE_DIAMOND
 10
78.450000
 20
-71.140000
 41
3.000000
 42
3.000000
 50
0.000000
  0
CIRCLE
  8
PIN_TOP
 10
84.800000
 20
-68.600000
 40
1.500000
  0
INSERT
  8
MA_NCLEGEND-1-2
  2
FIGURE_DIAMOND
 10
84.800000
 20
-68.600000
 41
3.000000
 42
3.000000
 50
0.000000
  0
CIRCLE
  8
PIN_TOP
 10
86.380000
 20
-66.000000
 40
0.850900
  0
INSERT
  8
MA_NCLEGEND-1-2
  2
FIGURE_OCT
 10
86.380000
 20
-66.000000
 41
1.701800
 42
1.701800
 50
0.000000
  0
CIRCLE
  8
PIN_TOP
 10
76.220000
 20
-66.000000
 40
0.850900
  0
INSERT
  8
MA_NCLEGEND-1-2
  2
FIGURE_OCT
 10
76.220000
 20
-66.000000
 41
1.701800
 42
1.701800
 50
0.000000
  0
CIRCLE
  8
PIN_TOP
 10
81.300000
 20
-66.000000
 40
1.993900
  0
INSERT
  8
MA_NCLEGEND-1-2
  2
FIGURE_TRI
 10
81.300000
 20
-66.000000
 41
3.987800
 42
3.987800
 50
0.000000
  0
POLYLINE
  8
PG_SILKSCREEN_TOP
 66
1
 70
1
 40
0.000000
 41
0.000000
 39
0.000000
  0
VERTEX
  8
PG_SILKSCREEN_TOP
 10
73.550000
 20
-72.400000
 40
0.300000
 41
0.300000
 42
0.000000
  0
VERTEX
  8
PG_SILKSCREEN_TOP
 10
73.550000
 20
-59.600000
 40
0.300000
 41
0.300000
 42
0.000000
  0
VERTEX
  8
PG_SILKSCREEN_TOP
 10
89.050000
 20
-59.600000
 40
0.300000
 41
0.300000
 42
0.000000
  0
VERTEX
  8
PG_SILKSCREEN_TOP
 10
89.050000
 20
-72.400000
 40
0.300000
 41
0.300000
 42
0.000000
  0
SEQEND
  0
POLYLINE
  8
PG_SILKSCREEN_TOP
 66
1
 70
1
 40
0.000000
 41
0.000000
 39
0.000000
  0
VERTEX
  8
PG_SILKSCREEN_TOP
 10
73.680000
 20
-58.380000
 40
0.300000
 41
0.300000
 42
0.000000
  0
VERTEX
  8
PG_SILKSCREEN_TOP
 10
88.920000
 20
-58.380000
 40
0.300000
 41
0.300000
 42
0.000000
  0
VERTEX
  8
PG_SILKSCREEN_TOP
 10
88.920000
 20
-73.620000
 40
0.300000
 41
0.300000
 42
0.000000
  0
VERTEX
  8
PG_SILKSCREEN_TOP
 10
73.680000
 20
-73.620000
 40
0.300000
 41
0.300000
 42
0.000000
  0
SEQEND
  0
CIRCLE
  8
PIN_TOP
 10
106.950000
 20
-71.140000
 40
1.500000
  0
INSERT
  8
MA_NCLEGEND-1-2
  2
FIGURE_DIAMOND
 10
106.950000
 20
-71.140000
 41
3.000000
 42
3.000000
 50
0.000000
  0
CIRCLE
  8
PIN_TOP
 10
113.300000
 20
-68.600000
 40
1.500000
  0
INSERT
  8
MA_NCLEGEND-1-2
  2
FIGURE_DIAMOND
 10
113.300000
 20
-68.600000
 41
3.000000
 42
3.000000
 50
0.000000
  0
CIRCLE
  8
PIN_TOP
 10
114.880000
 20
-66.000000
 40
0.850900
  0
INSERT
  8
MA_NCLEGEND-1-2
  2
FIGURE_OCT
 10
114.880000
 20
-66.000000
 41
1.701800
 42
1.701800
 50
0.000000
  0
CIRCLE
  8
PIN_TOP
 10
104.720000
 20
-66.000000
 40
0.850900
  0
INSERT
  8
MA_NCLEGEND-1-2
  2
FIGURE_OCT
 10
104.720000
 20
-66.000000
 41
1.701800
 42
1.701800
 50
0.000000
  0
CIRCLE
  8
PIN_TOP
 10
109.800000
 20
-66.000000
 40
1.993900
  0
INSERT
  8
MA_NCLEGEND-1-2
  2
FIGURE_TRI
 10
109.800000
 20
-66.000000
 41
3.987800
 42
3.987800
 50
0.000000
  0
POLYLINE
  8
PG_SILKSCREEN_TOP
 66
1
 70
1
 40
0.000000
 41
0.000000
 39
0.000000
  0
VERTEX
  8
PG_SILKSCREEN_TOP
 10
102.050000
 20
-72.400000
 40
0.300000
 41
0.300000
 42
0.000000
  0
VERTEX
  8
PG_SILKSCREEN_TOP
 10
102.050000
 20
-59.600000
 40
0.300000
 41
0.300000
 42
0.000000
  0
VERTEX
  8
PG_SILKSCREEN_TOP
 10
117.550000
 20
-59.600000
 40
0.300000
 41
0.300000
 42
0.000000
  0
VERTEX
  8
PG_SILKSCREEN_TOP
 10
117.550000
 20
-72.400000
 40
0.300000
 41
0.300000
 42
0.000000
  0
SEQEND
  0
POLYLINE
  8
PG_SILKSCREEN_TOP
 66
1
 70
1
 40
0.000000
 41
0.000000
 39
0.000000
  0
VERTEX
  8
PG_SILKSCREEN_TOP
 10
102.180000
 20
-58.380000
 40
0.300000
 41
0.300000
 42
0.000000
  0
VERTEX
  8
PG_SILKSCREEN_TOP
 10
117.420000
 20
-58.380000
 40
0.300000
 41
0.300000
 42
0.000000
  0
VERTEX
  8
PG_SILKSCREEN_TOP
 10
117.420000
 20
-73.620000
 40
0.300000
 41
0.300000
 42
0.000000
  0
VERTEX
  8
PG_SILKSCREEN_TOP
 10
102.180000
 20
-73.620000
 40
0.300000
 41
0.300000
 42
0.000000
  0
SEQEND
  0
CIRCLE
  8
PIN_TOP
 10
117.400100
 20
-79.860000
 40
1.500000
  0
INSERT
  8
MA_NCLEGEND-1-2
  2
FIGURE_DIAMOND
 10
117.400100
 20
-79.860000
 41
3.000000
 42
3.000000
 50
0.000000
  0
CIRCLE
  8
PIN_TOP
 10
111.050100
 20
-82.400000
 40
1.500000
  0
INSERT
  8
MA_NCLEGEND-1-2
  2
FIGURE_DIAMOND
 10
111.050100
 20
-82.400000
 41
3.000000
 42
3.000000
 50
0.000000
  0
CIRCLE
  8
PIN_TOP
 10
109.470100
 20
-85.000000
 40
0.850900
  0
INSERT
  8
MA_NCLEGEND-1-2
  2
FIGURE_OCT
 10
109.470100
 20
-85.000000
 41
1.701800
 42
1.701800
 50
0.000000
  0
CIRCLE
  8
PIN_TOP
 10
119.630100
 20
-85.000000
 40
0.850900
  0
INSERT
  8
MA_NCLEGEND-1-2
  2
FIGURE_OCT
 10
119.630100
 20
-85.000000
 41
1.701800
 42
1.701800
 50
0.000000
  0
CIRCLE
  8
PIN_TOP
 10
114.550100
 20
-85.000000
 40
1.993900
  0
INSERT
  8
MA_NCLEGEND-1-2
  2
FIGURE_TRI
 10
114.550100
 20
-85.000000
 41
3.987800
 42
3.987800
 50
0.000000
  0
POLYLINE
  8
PG_SILKSCREEN_TOP
 66
1
 70
1
 40
0.000000
 41
0.000000
 39
0.000000
  0
VERTEX
  8
PG_SILKSCREEN_TOP
 10
122.300100
 20
-78.600000
 40
0.300000
 41
0.300000
 42
0.000000
  0
VERTEX
  8
PG_SILKSCREEN_TOP
 10
122.300100
 20
-91.400000
 40
0.300000
 41
0.300000
 42
0.000000
  0
VERTEX
  8
PG_SILKSCREEN_TOP
 10
106.800100
 20
-91.400000
 40
0.300000
 41
0.300000
 42
0.000000
  0
VERTEX
  8
PG_SILKSCREEN_TOP
 10
106.800100
 20
-78.600000
 40
0.300000
 41
0.300000
 42
0.000000
  0
SEQEND
  0
POLYLINE
  8
PG_SILKSCREEN_TOP
 66
1
 70
1
 40
0.000000
 41
0.000000
 39
0.000000
  0
VERTEX
  8
PG_SILKSCREEN_TOP
 10
122.170100
 20
-92.620000
 40
0.300000
 41
0.300000
 42
0.000000
  0
VERTEX
  8
PG_SILKSCREEN_TOP
 10
106.930100
 20
-92.620000
 40
0.300000
 41
0.300000
 42
0.000000
  0
VERTEX
  8
PG_SILKSCREEN_TOP
 10
106.930100
 20
-77.380000
 40
0.300000
 41
0.300000
 42
0.000000
  0
VERTEX
  8
PG_SILKSCREEN_TOP
 10
122.170100
 20
-77.380000
 40
0.300000
 41
0.300000
 42
0.000000
  0
SEQEND
  0
CIRCLE
  8
PIN_TOP
 10
131.650000
 20
-60.860000
 40
1.500000
  0
INSERT
  8
MA_NCLEGEND-1-2
  2
FIGURE_DIAMOND
 10
131.650000
 20
-60.860000
 41
3.000000
 42
3.000000
 50
0.000000
  0
CIRCLE
  8
PIN_TOP
 10
125.300000
 20
-63.400000
 40
1.500000
  0
INSERT
  8
MA_NCLEGEND-1-2
  2
FIGURE_DIAMOND
 10
125.300000
 20
-63.400000
 41
3.000000
 42
3.000000
 50
0.000000
  0
CIRCLE
  8
PIN_TOP
 10
123.720000
 20
-66.000000
 40
0.850900
  0
INSERT
  8
MA_NCLEGEND-1-2
  2
FIGURE_OCT
 10
123.720000
 20
-66.000000
 41
1.701800
 42
1.701800
 50
0.000000
  0
CIRCLE
  8
PIN_TOP
 10
133.880000
 20
-66.000000
 40
0.850900
  0
INSERT
  8
MA_NCLEGEND-1-2
  2
FIGURE_OCT
 10
133.880000
 20
-66.000000
 41
1.701800
 42
1.701800
 50
0.000000
  0
CIRCLE
  8
PIN_TOP
 10
128.800000
 20
-66.000000
 40
1.993900
  0
INSERT
  8
MA_NCLEGEND-1-2
  2
FIGURE_TRI
 10
128.800000
 20
-66.000000
 41
3.987800
 42
3.987800
 50
0.000000
  0
POLYLINE
  8
PG_SILKSCREEN_TOP
 66
1
 70
1
 40
0.000000
 41
0.000000
 39
0.000000
  0
VERTEX
  8
PG_SILKSCREEN_TOP
 10
136.550000
 20
-59.600000
 40
0.300000
 41
0.300000
 42
0.000000
  0
VERTEX
  8
PG_SILKSCREEN_TOP
 10
136.550000
 20
-72.400000
 40
0.300000
 41
0.300000
 42
0.000000
  0
VERTEX
  8
PG_SILKSCREEN_TOP
 10
121.050000
 20
-72.400000
 40
0.300000
 41
0.300000
 42
0.000000
  0
VERTEX
  8
PG_SILKSCREEN_TOP
 10
121.050000
 20
-59.600000
 40
0.300000
 41
0.300000
 42
0.000000
  0
SEQEND
  0
POLYLINE
  8
PG_SILKSCREEN_TOP
 66
1
 70
1
 40
0.000000
 41
0.000000
 39
0.000000
  0
VERTEX
  8
PG_SILKSCREEN_TOP
 10
136.420000
 20
-73.620000
 40
0.300000
 41
0.300000
 42
0.000000
  0
VERTEX
  8
PG_SILKSCREEN_TOP
 10
121.180000
 20
-73.620000
 40
0.300000
 41
0.300000
 42
0.000000
  0
VERTEX
  8
PG_SILKSCREEN_TOP
 10
121.180000
 20
-58.380000
 40
0.300000
 41
0.300000
 42
0.000000
  0
VERTEX
  8
PG_SILKSCREEN_TOP
 10
136.420000
 20
-58.380000
 40
0.300000
 41
0.300000
 42
0.000000
  0
SEQEND
  0
CIRCLE
  8
PIN_TOP
 10
77.025100
 20
-79.860000
 40
1.500000
  0
INSERT
  8
MA_NCLEGEND-1-2
  2
FIGURE_DIAMOND
 10
77.025100
 20
-79.860000
 41
3.000000
 42
3.000000
 50
0.000000
  0
CIRCLE
  8
PIN_TOP
 10
70.675100
 20
-82.400000
 40
1.500000
  0
INSERT
  8
MA_NCLEGEND-1-2
  2
FIGURE_DIAMOND
 10
70.675100
 20
-82.400000
 41
3.000000
 42
3.000000
 50
0.000000
  0
CIRCLE
  8
PIN_TOP
 10
69.095100
 20
-85.000000
 40
0.850900
  0
INSERT
  8
MA_NCLEGEND-1-2
  2
FIGURE_OCT
 10
69.095100
 20
-85.000000
 41
1.701800
 42
1.701800
 50
0.000000
  0
CIRCLE
  8
PIN_TOP
 10
79.255100
 20
-85.000000
 40
0.850900
  0
INSERT
  8
MA_NCLEGEND-1-2
  2
FIGURE_OCT
 10
79.255100
 20
-85.000000
 41
1.701800
 42
1.701800
 50
0.000000
  0
CIRCLE
  8
PIN_TOP
 10
74.175100
 20
-85.000000
 40
1.993900
  0
INSERT
  8
MA_NCLEGEND-1-2
  2
FIGURE_TRI
 10
74.175100
 20
-85.000000
 41
3.987800
 42
3.987800
 50
0.000000
  0
POLYLINE
  8
PG_SILKSCREEN_TOP
 66
1
 70
1
 40
0.000000
 41
0.000000
 39
0.000000
  0
VERTEX
  8
PG_SILKSCREEN_TOP
 10
81.925100
 20
-78.600000
 40
0.300000
 41
0.300000
 42
0.000000
  0
VERTEX
  8
PG_SILKSCREEN_TOP
 10
81.925100
 20
-91.400000
 40
0.300000
 41
0.300000
 42
0.000000
  0
VERTEX
  8
PG_SILKSCREEN_TOP
 10
66.425100
 20
-91.400000
 40
0.300000
 41
0.300000
 42
0.000000
  0
VERTEX
  8
PG_SILKSCREEN_TOP
 10
66.425100
 20
-78.600000
 40
0.300000
 41
0.300000
 42
0.000000
  0
SEQEND
  0
POLYLINE
  8
PG_SILKSCREEN_TOP
 66
1
 70
1
 40
0.000000
 41
0.000000
 39
0.000000
  0
VERTEX
  8
PG_SILKSCREEN_TOP
 10
81.795100
 20
-92.620000
 40
0.300000
 41
0.300000
 42
0.000000
  0
VERTEX
  8
PG_SILKSCREEN_TOP
 10
66.555100
 20
-92.620000
 40
0.300000
 41
0.300000
 42
0.000000
  0
VERTEX
  8
PG_SILKSCREEN_TOP
 10
66.555100
 20
-77.380000
 40
0.300000
 41
0.300000
 42
0.000000
  0
VERTEX
  8
PG_SILKSCREEN_TOP
 10
81.795100
 20
-77.380000
 40
0.300000
 41
0.300000
 42
0.000000
  0
SEQEND
  0
CIRCLE
  8
PIN_TOP
 10
98.400100
 20
-79.860000
 40
1.500000
  0
INSERT
  8
MA_NCLEGEND-1-2
  2
FIGURE_DIAMOND
 10
98.400100
 20
-79.860000
 41
3.000000
 42
3.000000
 50
0.000000
  0
CIRCLE
  8
PIN_TOP
 10
92.050100
 20
-82.400000
 40
1.500000
  0
INSERT
  8
MA_NCLEGEND-1-2
  2
FIGURE_DIAMOND
 10
92.050100
 20
-82.400000
 41
3.000000
 42
3.000000
 50
0.000000
  0
CIRCLE
  8
PIN_TOP
 10
90.470100
 20
-85.000000
 40
0.850900
  0
INSERT
  8
MA_NCLEGEND-1-2
  2
FIGURE_OCT
 10
90.470100
 20
-85.000000
 41
1.701800
 42
1.701800
 50
0.000000
  0
CIRCLE
  8
PIN_TOP
 10
100.630100
 20
-85.000000
 40
0.850900
  0
INSERT
  8
MA_NCLEGEND-1-2
  2
FIGURE_OCT
 10
100.630100
 20
-85.000000
 41
1.701800
 42
1.701800
 50
0.000000
  0
CIRCLE
  8
PIN_TOP
 10
95.550100
 20
-85.000000
 40
1.993900
  0
INSERT
  8
MA_NCLEGEND-1-2
  2
FIGURE_TRI
 10
95.550100
 20
-85.000000
 41
3.987800
 42
3.987800
 50
0.000000
  0
POLYLINE
  8
PG_SILKSCREEN_TOP
 66
1
 70
1
 40
0.000000
 41
0.000000
 39
0.000000
  0
VERTEX
  8
PG_SILKSCREEN_TOP
 10
103.300100
 20
-78.600000
 40
0.300000
 41
0.300000
 42
0.000000
  0
VERTEX
  8
PG_SILKSCREEN_TOP
 10
103.300100
 20
-91.400000
 40
0.300000
 41
0.300000
 42
0.000000
  0
VERTEX
  8
PG_SILKSCREEN_TOP
 10
87.800100
 20
-91.400000
 40
0.300000
 41
0.300000
 42
0.000000
  0
VERTEX
  8
PG_SILKSCREEN_TOP
 10
87.800100
 20
-78.600000
 40
0.300000
 41
0.300000
 42
0.000000
  0
SEQEND
  0
POLYLINE
  8
PG_SILKSCREEN_TOP
 66
1
 70
1
 40
0.000000
 41
0.000000
 39
0.000000
  0
VERTEX
  8
PG_SILKSCREEN_TOP
 10
103.170100
 20
-92.620000
 40
0.300000
 41
0.300000
 42
0.000000
  0
VERTEX
  8
PG_SILKSCREEN_TOP
 10
87.930100
 20
-92.620000
 40
0.300000
 41
0.300000
 42
0.000000
  0
VERTEX
  8
PG_SILKSCREEN_TOP
 10
87.930100
 20
-77.380000
 40
0.300000
 41
0.300000
 42
0.000000
  0
VERTEX
  8
PG_SILKSCREEN_TOP
 10
103.170100
 20
-77.380000
 40
0.300000
 41
0.300000
 42
0.000000
  0
SEQEND
  0
POLYLINE
  8
PIN_TOP
 66
1
 70
1
 40
0.000000
 41
0.000000
 39
0.000000
  0
VERTEX
  8
PIN_TOP
 10
65.615100
 20
-99.085000
 40
0.000000
 41
0.000000
 42
0.000000
  0
VERTEX
  8
PIN_TOP
 10
66.885100
 20
-99.085000
 40
0.000000
 41
0.000000
 42
0.000000
  0
VERTEX
  8
PIN_TOP
 10
66.885100
 20
-100.355000
 40
0.000000
 41
0.000000
 42
0.000000
  0
VERTEX
  8
PIN_TOP
 10
65.615100
 20
-100.355000
 40
0.000000
 41
0.000000
 42
0.000000
  0
SEQEND
  0
CIRCLE
  8
PIN_TOP
 10
66.250100
 20
-101.720000
 40
0.750000
  0
CIRCLE
  8
PIN_TOP
 10
66.250100
 20
-103.720000
 40
0.750000
  0
CIRCLE
  8
PIN_TOP
 10
66.250100
 20
-105.720000
 40
0.750000
  0
POLYLINE
  8
PG_SILKSCREEN_TOP
 66
1
 70
0
 40
0.000000
 41
0.000000
 39
0.000000
  0
VERTEX
  8
PG_SILKSCREEN_TOP
 10
65.250100
 20
-98.720000
 40
0.152400
 41
0.152400
 42
0.000000
  0
VERTEX
  8
PG_SILKSCREEN_TOP
 10
67.250100
 20
-98.720000
 40
0.152400
 41
0.152400
 42
0.000000
  0
SEQEND
  0
POLYLINE
  8
PG_SILKSCREEN_TOP
 66
1
 70
0
 40
0.000000
 41
0.000000
 39
0.000000
  0
VERTEX
  8
PG_SILKSCREEN_TOP
 10
65.249900
 20
-106.720000
 40
0.152400
 41
0.152400
 42
0.000000
  0
VERTEX
  8
PG_SILKSCREEN_TOP
 10
65.250100
 20
-98.720000
 40
0.152400
 41
0.152400
 42
0.000000
  0
SEQEND
  0
POLYLINE
  8
PG_SILKSCREEN_TOP
 66
1
 70
0
 40
0.000000
 41
0.000000
 39
0.000000
  0
VERTEX
  8
PG_SILKSCREEN_TOP
 10
67.250100
 20
-98.720000
 40
0.152400
 41
0.152400
 42
0.000000
  0
VERTEX
  8
PG_SILKSCREEN_TOP
 10
67.250100
 20
-106.720000
 40
0.152400
 41
0.152400
 42
0.000000
  0
SEQEND
  0
POLYLINE
  8
PG_SILKSCREEN_TOP
 66
1
 70
0
 40
0.000000
 41
0.000000
 39
0.000000
  0
VERTEX
  8
PG_SILKSCREEN_TOP
 10
67.250100
 20
-106.720000
 40
0.152400
 41
0.152400
 42
0.000000
  0
VERTEX
  8
PG_SILKSCREEN_TOP
 10
65.249900
 20
-106.720000
 40
0.152400
 41
0.152400
 42
0.000000
  0
SEQEND
  0
TEXT
  8
RD_SILKSCREEN_TOP
 10
65.749900
 20
-107.320100
 11
0.000000
 21
0.000000
 40
0.762000
 41
0.833333
 50
270.000000
  7
STANDARD
 71
0
 72
0
  1
J2
 73
0
  0
POLYLINE
  8
PIN_TOP
 66
1
 70
1
 40
0.000000
 41
0.000000
 39
0.000000
  0
VERTEX
  8
PIN_TOP
 10
74.790000
 20
-121.470000
 40
0.000000
 41
0.000000
 42
0.000000
  0
VERTEX
  8
PIN_TOP
 10
74.790000
 20
-122.770000
 40
0.000000
 41
0.000000
 42
0.000000
  0
VERTEX
  8
PIN_TOP
 10
72.990000
 20
-122.770000
 40
0.000000
 41
0.000000
 42
0.000000
  0
VERTEX
  8
PIN_TOP
 10
72.990000
 20
-121.470000
 40
0.000000
 41
0.000000
 42
0.000000
  0
SEQEND
  0
POLYLINE
  8
PIN_TOP
 66
1
 70
1
 40
0.000000
 41
0.000000
 39
0.000000
  0
VERTEX
  8
PIN_TOP
 10
74.790000
 20
-119.770000
 40
0.000000
 41
0.000000
 42
0.000000
  0
VERTEX
  8
PIN_TOP
 10
74.790000
 20
-121.070000
 40
0.000000
 41
0.000000
 42
0.000000
  0
VERTEX
  8
PIN_TOP
 10
72.990000
 20
-121.070000
 40
0.000000
 41
0.000000
 42
0.000000
  0
VERTEX
  8
PIN_TOP
 10
72.990000
 20
-119.770000
 40
0.000000
 41
0.000000
 42
0.000000
  0
SEQEND
  0
POLYLINE
  8
PIN_TOP
 66
1
 70
1
 40
0.000000
 41
0.000000
 39
0.000000
  0
VERTEX
  8
PIN_TOP
 10
72.590000
 20
-119.770000
 40
0.000000
 41
0.000000
 42
0.000000
  0
VERTEX
  8
PIN_TOP
 10
72.590000
 20
-121.070000
 40
0.000000
 41
0.000000
 42
0.000000
  0
VERTEX
  8
PIN_TOP
 10
70.790000
 20
-121.070000
 40
0.000000
 41
0.000000
 42
0.000000
  0
VERTEX
  8
PIN_TOP
 10
70.790000
 20
-119.770000
 40
0.000000
 41
0.000000
 42
0.000000
  0
SEQEND
  0
POLYLINE
  8
PIN_TOP
 66
1
 70
1
 40
0.000000
 41
0.000000
 39
0.000000
  0
VERTEX
  8
PIN_TOP
 10
72.590000
 20
-121.470000
 40
0.000000
 41
0.000000
 42
0.000000
  0
VERTEX
  8
PIN_TOP
 10
72.590000
 20
-122.770000
 40
0.000000
 41
0.000000
 42
0.000000
  0
VERTEX
  8
PIN_TOP
 10
70.790000
 20
-122.770000
 40
0.000000
 41
0.000000
 42
0.000000
  0
VERTEX
  8
PIN_TOP
 10
70.790000
 20
-121.470000
 40
0.000000
 41
0.000000
 42
0.000000
  0
SEQEND
  0
POLYLINE
  8
PG_SILKSCREEN_TOP
 66
1
 70
1
 40
0.000000
 41
0.000000
 39
0.000000
  0
VERTEX
  8
PG_SILKSCREEN_TOP
 10
74.890000
 20
-122.920000
 40
0.100000
 41
0.100000
 42
0.000000
  0
VERTEX
  8
PG_SILKSCREEN_TOP
 10
74.890000
 20
-119.620000
 40
0.100000
 41
0.100000
 42
0.000000
  0
VERTEX
  8
PG_SILKSCREEN_TOP
 10
70.690000
 20
-119.620000
 40
0.100000
 41
0.100000
 42
0.000000
  0
VERTEX
  8
PG_SILKSCREEN_TOP
 10
70.690000
 20
-122.920000
 40
0.100000
 41
0.100000
 42
0.000000
  0
SEQEND
  0
POLYLINE
  8
PG_SILKSCREEN_TOP
 66
1
 70
1
 40
0.000000
 41
0.000000
 39
0.000000
  0
VERTEX
  8
PG_SILKSCREEN_TOP
 10
75.490000
 20
-121.820000
 40
0.000000
 41
0.000000
 42
0.000000
  0
VERTEX
  8
PG_SILKSCREEN_TOP
 10
75.490000
 20
-122.820000
 40
0.000000
 41
0.000000
 42
0.000000
  0
VERTEX
  8
PG_SILKSCREEN_TOP
 10
74.990000
 20
-122.320000
 40
0.000000
 41
0.000000
 42
0.000000
  0
SEQEND
  0
TEXT
  8
RD_SILKSCREEN_TOP
 10
73.666500
 20
-123.506300
 11
0.000000
 21
0.000000
 40
0.762000
 41
0.833333
 50
180.000000
  7
STANDARD
 71
0
 72
0
  1
E3
 73
0
  0
CIRCLE
  8
PIN_TOP
 10
95.330000
 20
-121.770000
 40
0.400000
  0
INSERT
  8
MA_NCLEGEND-1-2
  2
FIGURE_HEX
 10
95.330000
 20
-121.770000
 41
0.800000
 42
0.800000
 50
90.000000
  0
CIRCLE
  8
PIN_TOP
 10
93.630000
 20
-121.770000
 40
0.400000
  0
INSERT
  8
MA_NCLEGEND-1-2
  2
FIGURE_HEX
 10
93.630000
 20
-121.770000
 41
0.800000
 42
0.800000
 50
90.000000
  0
POLYLINE
  8
PIN_TOP
 66
1
 70
1
 40
0.000000
 41
0.000000
 39
0.000000
  0
VERTEX
  8
PIN_TOP
 10
96.330000
 20
-122.370000
 40
0.000000
 41
0.000000
 42
0.000000
  0
VERTEX
  8
PIN_TOP
 10
96.330000
 20
-121.170000
 40
0.000000
 41
0.000000
 42
0.000000
  0
VERTEX
  8
PIN_TOP
 10
97.230000
 20
-121.170000
 40
0.000000
 41
0.000000
 42
0.000000
  0
VERTEX
  8
PIN_TOP
 10
97.230000
 20
-122.370000
 40
0.000000
 41
0.000000
 42
0.000000
  0
SEQEND
  0
POLYLINE
  8
PIN_TOP
 66
1
 70
1
 40
0.000000
 41
0.000000
 39
0.000000
  0
VERTEX
  8
PIN_TOP
 10
91.730000
 20
-122.370000
 40
0.000000
 41
0.000000
 42
0.000000
  0
VERTEX
  8
PIN_TOP
 10
91.730000
 20
-121.170000
 40
0.000000
 41
0.000000
 42
0.000000
  0
VERTEX
  8
PIN_TOP
 10
92.630000
 20
-121.170000
 40
0.000000
 41
0.000000
 42
0.000000
  0
VERTEX
  8
PIN_TOP
 10
92.630000
 20
-122.370000
 40
0.000000
 41
0.000000
 42
0.000000
  0
SEQEND
  0
POLYLINE
  8
PIN_TOP
 66
1
 70
1
 40
0.000000
 41
0.000000
 39
0.000000
  0
VERTEX
  8
PIN_TOP
 10
96.730000
 20
-119.570000
 40
0.000000
 41
0.000000
 42
0.000000
  0
VERTEX
  8
PIN_TOP
 10
96.730000
 20
-120.870000
 40
0.000000
 41
0.000000
 42
0.000000
  0
VERTEX
  8
PIN_TOP
 10
95.580000
 20
-120.870000
 40
0.000000
 41
0.000000
 42
0.000000
  0
VERTEX
  8
PIN_TOP
 10
95.580000
 20
-119.570000
 40
0.000000
 41
0.000000
 42
0.000000
  0
SEQEND
  0
POLYLINE
  8
PIN_TOP
 66
1
 70
1
 40
0.000000
 41
0.000000
 39
0.000000
  0
VERTEX
  8
PIN_TOP
 10
93.380000
 20
-119.570000
 40
0.000000
 41
0.000000
 42
0.000000
  0
VERTEX
  8
PIN_TOP
 10
93.380000
 20
-120.870000
 40
0.000000
 41
0.000000
 42
0.000000
  0
VERTEX
  8
PIN_TOP
 10
92.230000
 20
-120.870000
 40
0.000000
 41
0.000000
 42
0.000000
  0
VERTEX
  8
PIN_TOP
 10
92.230000
 20
-119.570000
 40
0.000000
 41
0.000000
 42
0.000000
  0
SEQEND
  0
POLYLINE
  8
PG_SILKSCREEN_TOP
 66
1
 70
0
 40
0.000000
 41
0.000000
 39
0.000000
  0
VERTEX
  8
PG_SILKSCREEN_TOP
 10
92.205000
 20
-121.770000
 40
0.100000
 41
0.100000
 42
0.000000
  0
VERTEX
  8
PG_SILKSCREEN_TOP
 10
92.205000
 20
-122.470000
 40
0.100000
 41
0.100000
 42
0.000000
  0
VERTEX
  8
PG_SILKSCREEN_TOP
 10
96.755000
 20
-122.470000
 40
0.100000
 41
0.100000
 42
0.000000
  0
VERTEX
  8
PG_SILKSCREEN_TOP
 10
96.755000
 20
-120.170000
 40
0.100000
 41
0.100000
 42
0.000000
  0
VERTEX
  8
PG_SILKSCREEN_TOP
 10
92.205000
 20
-120.170000
 40
0.100000
 41
0.100000
 42
0.000000
  0
VERTEX
  8
PG_SILKSCREEN_TOP
 10
92.205000
 20
-121.745000
 40
0.100000
 41
0.100000
 42
0.000000
  0
SEQEND
  0
TEXT
  8
RD_SILKSCREEN_TOP
 10
95.004900
 20
-122.747200
 11
0.000000
 21
0.000000
 40
0.762000
 41
0.833333
 50
180.000000
  7
STANDARD
 71
0
 72
0
  1
J18
 73
0
  0
POLYLINE
  8
BG_OUTLINE
 66
1
 70
1
 40
0.000000
 41
0.000000
 39
0.000000
  0
VERTEX
  8
BG_OUTLINE
 10
66.650000
 20
-58.250000
 40
0.100000
 41
0.100000
 42
0.000000
  0
VERTEX
  8
BG_OUTLINE
 10
88.860000
 20
-58.250000
 40
0.100000
 41
0.100000
 42
0.000000
  0
VERTEX
  8
BG_OUTLINE
 10
88.860000
 20
-66.970000
 40
0.100000
 41
0.100000
 42
0.000000
  0
VERTEX
  8
BG_OUTLINE
 10
102.440000
 20
-66.970000
 40
0.100000
 41
0.100000
 42
0.000000
  0
VERTEX
  8
BG_OUTLINE
 10
102.440000
 20
-58.250000
 40
0.100000
 41
0.100000
 42
0.000000
  0
VERTEX
  8
BG_OUTLINE
 10
151.080000
 20
-58.250000
 40
0.100000
 41
0.100000
 42
0.000000
  0
VERTEX
  8
BG_OUTLINE
 10
151.080000
 20
-126.250000
 40
0.100000
 41
0.100000
 42
0.000000
  0
VERTEX
  8
BG_OUTLINE
 10
63.850000
 20
-126.250000
 40
0.100000
 41
0.100000
 42
0.000000
  0
VERTEX
  8
BG_OUTLINE
 10
63.850000
 20
-61.020000
 40
0.100000
 41
0.100000
 42
-0.414214
  0
VERTEX
  8
BG_OUTLINE
 10
66.620000
 20
-58.250000
 40
0.100000
 41
0.100000
 42
0.000000
  0
SEQEND
  0
POLYLINE
  8
BG_OUTLINE
 66
1
 70
0
 40
0.000000
 41
0.000000
 39
0.000000
  0
VERTEX
  8
BG_OUTLINE
 10
209.753600
 20
-58.250000
 40
0.000000
 41
0.000000
 42
0.000000
  0
VERTEX
  8
BG_OUTLINE
 10
209.750000
 20
-58.250000
 40
0.000000
 41
0.000000
 42
0.000000
  0
SEQEND
  0
POLYLINE
  8
MA_NCLEGEND-1-2
 66
1
 70
0
 40
0.000000
 41
0.000000
 39
0.000000
  0
VERTEX
  8
MA_NCLEGEND-1-2
 10
76.840000
 20
-14.038800
 40
0.100000
 41
0.100000
 42
0.000000
  0
VERTEX
  8
MA_NCLEGEND-1-2
 10
247.705800
 20
-14.038800
 40
0.100000
 41
0.100000
 42
0.000000
  0
SEQEND
  0
POLYLINE
  8
MA_NCLEGEND-1-2
 66
1
 70
0
 40
0.000000
 41
0.000000
 39
0.000000
  0
VERTEX
  8
MA_NCLEGEND-1-2
 10
76.840000
 20
-6.901400
 40
0.100000
 41
0.100000
 42
0.000000
  0
VERTEX
  8
MA_NCLEGEND-1-2
 10
247.705800
 20
-6.901400
 40
0.100000
 41
0.100000
 42
0.000000
  0
SEQEND
  0
POLYLINE
  8
MA_NCLEGEND-1-2
 66
1
 70
0
 40
0.000000
 41
0.000000
 39
0.000000
  0
VERTEX
  8
MA_NCLEGEND-1-2
 10
76.840000
 20
0.236000
 40
0.100000
 41
0.100000
 42
0.000000
  0
VERTEX
  8
MA_NCLEGEND-1-2
 10
247.705800
 20
0.236000
 40
0.100000
 41
0.100000
 42
0.000000
  0
SEQEND
  0
POLYLINE
  8
MA_NCLEGEND-1-2
 66
1
 70
0
 40
0.000000
 41
0.000000
 39
0.000000
  0
VERTEX
  8
MA_NCLEGEND-1-2
 10
76.840000
 20
7.373400
 40
0.100000
 41
0.100000
 42
0.000000
  0
VERTEX
  8
MA_NCLEGEND-1-2
 10
247.705800
 20
7.373400
 40
0.100000
 41
0.100000
 42
0.000000
  0
SEQEND
  0
POLYLINE
  8
MA_NCLEGEND-1-2
 66
1
 70
0
 40
0.000000
 41
0.000000
 39
0.000000
  0
VERTEX
  8
MA_NCLEGEND-1-2
 10
76.840000
 20
14.510800
 40
0.100000
 41
0.100000
 42
0.000000
  0
VERTEX
  8
MA_NCLEGEND-1-2
 10
247.705800
 20
14.510800
 40
0.100000
 41
0.100000
 42
0.000000
  0
SEQEND
  0
POLYLINE
  8
MA_NCLEGEND-1-2
 66
1
 70
0
 40
0.000000
 41
0.000000
 39
0.000000
  0
VERTEX
  8
MA_NCLEGEND-1-2
 10
76.840000
 20
21.648200
 40
0.100000
 41
0.100000
 42
0.000000
  0
VERTEX
  8
MA_NCLEGEND-1-2
 10
247.705800
 20
21.648200
 40
0.100000
 41
0.100000
 42
0.000000
  0
SEQEND
  0
POLYLINE
  8
MA_NCLEGEND-1-2
 66
1
 70
0
 40
0.000000
 41
0.000000
 39
0.000000
  0
VERTEX
  8
MA_NCLEGEND-1-2
 10
76.840000
 20
28.785600
 40
0.100000
 41
0.100000
 42
0.000000
  0
VERTEX
  8
MA_NCLEGEND-1-2
 10
247.705800
 20
28.785600
 40
0.100000
 41
0.100000
 42
0.000000
  0
SEQEND
  0
POLYLINE
  8
MA_NCLEGEND-1-2
 66
1
 70
0
 40
0.000000
 41
0.000000
 39
0.000000
  0
VERTEX
  8
MA_NCLEGEND-1-2
 10
76.840000
 20
35.923000
 40
0.100000
 41
0.100000
 42
0.000000
  0
VERTEX
  8
MA_NCLEGEND-1-2
 10
247.705800
 20
35.923000
 40
0.100000
 41
0.100000
 42
0.000000
  0
SEQEND
  0
POLYLINE
  8
MA_NCLEGEND-1-2
 66
1
 70
0
 40
0.000000
 41
0.000000
 39
0.000000
  0
VERTEX
  8
MA_NCLEGEND-1-2
 10
76.840000
 20
43.060400
 40
0.100000
 41
0.100000
 42
0.000000
  0
VERTEX
  8
MA_NCLEGEND-1-2
 10
247.705800
 20
43.060400
 40
0.100000
 41
0.100000
 42
0.000000
  0
SEQEND
  0
POLYLINE
  8
MA_NCLEGEND-1-2
 66
1
 70
0
 40
0.000000
 41
0.000000
 39
0.000000
  0
VERTEX
  8
MA_NCLEGEND-1-2
 10
76.840000
 20
50.197800
 40
0.100000
 41
0.100000
 42
0.000000
  0
VERTEX
  8
MA_NCLEGEND-1-2
 10
247.705800
 20
50.197800
 40
0.100000
 41
0.100000
 42
0.000000
  0
SEQEND
  0
POLYLINE
  8
MA_NCLEGEND-1-2
 66
1
 70
0
 40
0.000000
 41
0.000000
 39
0.000000
  0
VERTEX
  8
MA_NCLEGEND-1-2
 10
76.840000
 20
57.335200
 40
0.100000
 41
0.100000
 42
0.000000
  0
VERTEX
  8
MA_NCLEGEND-1-2
 10
247.705800
 20
57.335200
 40
0.100000
 41
0.100000
 42
0.000000
  0
SEQEND
  0
POLYLINE
  8
MA_NCLEGEND-1-2
 66
1
 70
0
 40
0.000000
 41
0.000000
 39
0.000000
  0
VERTEX
  8
MA_NCLEGEND-1-2
 10
228.020800
 20
64.472600
 40
0.100000
 41
0.100000
 42
0.000000
  0
VERTEX
  8
MA_NCLEGEND-1-2
 10
228.020800
 20
-21.176200
 40
0.100000
 41
0.100000
 42
0.000000
  0
SEQEND
  0
POLYLINE
  8
MA_NCLEGEND-1-2
 66
1
 70
0
 40
0.000000
 41
0.000000
 39
0.000000
  0
VERTEX
  8
MA_NCLEGEND-1-2
 10
195.737400
 20
64.472600
 40
0.100000
 41
0.100000
 42
0.000000
  0
VERTEX
  8
MA_NCLEGEND-1-2
 10
195.737400
 20
-21.176200
 40
0.100000
 41
0.100000
 42
0.000000
  0
SEQEND
  0
POLYLINE
  8
MA_NCLEGEND-1-2
 66
1
 70
0
 40
0.000000
 41
0.000000
 39
0.000000
  0
VERTEX
  8
MA_NCLEGEND-1-2
 10
147.706000
 20
64.472600
 40
0.100000
 41
0.100000
 42
0.000000
  0
VERTEX
  8
MA_NCLEGEND-1-2
 10
147.706000
 20
-21.176200
 40
0.100000
 41
0.100000
 42
0.000000
  0
SEQEND
  0
POLYLINE
  8
MA_NCLEGEND-1-2
 66
1
 70
0
 40
0.000000
 41
0.000000
 39
0.000000
  0
VERTEX
  8
MA_NCLEGEND-1-2
 10
99.674600
 20
64.472600
 40
0.100000
 41
0.100000
 42
0.000000
  0
VERTEX
  8
MA_NCLEGEND-1-2
 10
99.674600
 20
-21.176200
 40
0.100000
 41
0.100000
 42
0.000000
  0
SEQEND
  0
POLYLINE
  8
MA_NCLEGEND-1-2
 66
1
 70
0
 40
0.000000
 41
0.000000
 39
0.000000
  0
VERTEX
  8
MA_NCLEGEND-1-2
 10
76.840000
 20
64.472600
 40
0.100000
 41
0.100000
 42
0.000000
  0
VERTEX
  8
MA_NCLEGEND-1-2
 10
247.705800
 20
64.472600
 40
0.100000
 41
0.100000
 42
0.000000
  0
SEQEND
  0
POLYLINE
  8
MA_NCLEGEND-1-2
 66
1
 70
0
 40
0.000000
 41
0.000000
 39
0.000000
  0
VERTEX
  8
MA_NCLEGEND-1-2
 10
76.840000
 20
71.610000
 40
0.100000
 41
0.100000
 42
0.000000
  0
VERTEX
  8
MA_NCLEGEND-1-2
 10
247.705800
 20
71.610000
 40
0.100000
 41
0.100000
 42
0.000000
  0
SEQEND
  0
POLYLINE
  8
MA_NCLEGEND-1-2
 66
1
 70
1
 40
0.000000
 41
0.000000
 39
0.000000
  0
VERTEX
  8
MA_NCLEGEND-1-2
 10
76.840000
 20
-21.176200
 40
0.000000
 41
0.000000
 42
0.000000
  0
VERTEX
  8
MA_NCLEGEND-1-2
 10
76.840000
 20
78.110000
 40
0.000000
 41
0.000000
 42
0.000000
  0
VERTEX
  8
MA_NCLEGEND-1-2
 10
247.705800
 20
78.110000
 40
0.000000
 41
0.000000
 42
0.000000
  0
VERTEX
  8
MA_NCLEGEND-1-2
 10
247.705800
 20
-21.176200
 40
0.000000
 41
0.000000
 42
0.000000
  0
SEQEND
  0
POLYLINE
  8
BG_OUTLINE
 66
1
 70
1
 40
0.000000
 41
0.000000
 39
0.000000
  0
VERTEX
  8
BG_OUTLINE
 10
85.862700
 20
-85.000100
 40
0.000000
 41
0.000000
 42
1.000000
  0
VERTEX
  8
BG_OUTLINE
 10
83.862582
 20
-85.000007
 40
0.000000
 41
0.000000
 42
1.000000
  0
SEQEND
  0
TEXT
  8
MA_NCLEGEND-1-2
 10
236.804967
 20
-19.195000
 11
237.863300
 21
-19.195000
 40
3.175000
 41
0.992000
 50
0.000000
  7
STANDARD
 71
0
 72
1
  1
2
 73
0
  0
TEXT
  8
MA_NCLEGEND-1-2
 10
210.820767
 20
-19.195000
 11
211.879100
 21
-19.195000
 40
3.175000
 41
0.992000
 50
0.000000
  7
STANDARD
 71
0
 72
1
  1
PLATED
 73
0
  0
TEXT
  8
MA_NCLEGEND-1-2
 10
170.663367
 20
-19.195000
 11
171.721700
 21
-19.195000
 40
3.175000
 41
0.992000
 50
0.000000
  7
STANDARD
 71
0
 72
1
  1
+0.05/-0.05
 73
0
  0
TEXT
  8
MA_NCLEGEND-1-2
 10
122.631967
 20
-19.195000
 11
123.690300
 21
-19.195000
 40
3.175000
 41
0.992000
 50
0.000000
  7
STANDARD
 71
0
 72
1
  1
2.2x0.6
 73
0
  0
TEXT
  8
MA_NCLEGEND-1-2
 10
236.804967
 20
-12.057600
 11
237.863300
 21
-12.057600
 40
3.175000
 41
0.992000
 50
0.000000
  7
STANDARD
 71
0
 72
1
  1
2
 73
0
  0
TEXT
  8
MA_NCLEGEND-1-2
 10
210.820767
 20
-12.057600
 11
211.879100
 21
-12.057600
 40
3.175000
 41
0.992000
 50
0.000000
  7
STANDARD
 71
0
 72
1
  1
PLATED
 73
0
  0
TEXT
  8
MA_NCLEGEND-1-2
 10
170.663367
 20
-12.057600
 11
171.721700
 21
-12.057600
 40
3.175000
 41
0.992000
 50
0.000000
  7
STANDARD
 71
0
 72
1
  1
+0.0001/-0.0001
 73
0
  0
TEXT
  8
MA_NCLEGEND-1-2
 10
122.631967
 20
-12.057600
 11
123.690300
 21
-12.057600
 40
3.175000
 41
0.992000
 50
0.000000
  7
STANDARD
 71
0
 72
1
  1
1.5x0.7
 73
0
  0
TEXT
  8
MA_NCLEGEND-1-2
 10
236.804967
 20
-4.920200
 11
237.863300
 21
-4.920200
 40
3.175000
 41
0.992000
 50
0.000000
  7
STANDARD
 71
0
 72
1
  1
2
 73
0
  0
TEXT
  8
MA_NCLEGEND-1-2
 10
210.820767
 20
-4.920200
 11
211.879100
 21
-4.920200
 40
3.175000
 41
0.992000
 50
0.000000
  7
STANDARD
 71
0
 72
1
  1
PLATED
 73
0
  0
TEXT
  8
MA_NCLEGEND-1-2
 10
170.663367
 20
-4.920200
 11
171.721700
 21
-4.920200
 40
3.175000
 41
0.992000
 50
0.000000
  7
STANDARD
 71
0
 72
1
  1
+0.0001/-0.0001
 73
0
  0
TEXT
  8
MA_NCLEGEND-1-2
 10
122.631967
 20
-4.920200
 11
123.690300
 21
-4.920200
 40
3.175000
 41
0.992000
 50
0.000000
  7
STANDARD
 71
0
 72
1
  1
1.35x0.7
 73
0
  0
TEXT
  8
MA_NCLEGEND-1-2
 10
236.804967
 20
2.217200
 11
237.863300
 21
2.217200
 40
3.175000
 41
0.992000
 50
0.000000
  7
STANDARD
 71
0
 72
1
  1
2
 73
0
  0
TEXT
  8
MA_NCLEGEND-1-2
 10
210.820767
 20
2.217200
 11
211.879100
 21
2.217200
 40
3.175000
 41
0.992000
 50
0.000000
  7
STANDARD
 71
0
 72
1
  1
PLATED
 73
0
  0
TEXT
  8
MA_NCLEGEND-1-2
 10
170.663367
 20
2.217200
 11
171.721700
 21
2.217200
 40
3.175000
 41
0.992000
 50
0.000000
  7
STANDARD
 71
0
 72
1
  1
+0.0001/-0.0001
 73
0
  0
TEXT
  8
MA_NCLEGEND-1-2
 10
122.631967
 20
2.217200
 11
123.690300
 21
2.217200
 40
3.175000
 41
0.992000
 50
0.000000
  7
STANDARD
 71
0
 72
1
  1
1.3x0.7
 73
0
  0
TEXT
  8
MA_NCLEGEND-1-2
 10
236.804967
 20
9.354600
 11
237.863300
 21
9.354600
 40
3.175000
 41
0.992000
 50
0.000000
  7
STANDARD
 71
0
 72
1
  1
36
 73
0
  0
TEXT
  8
MA_NCLEGEND-1-2
 10
210.820767
 20
9.354600
 11
211.879100
 21
9.354600
 40
3.175000
 41
0.992000
 50
0.000000
  7
STANDARD
 71
0
 72
1
  1
NON-PLATED
 73
0
  0
TEXT
  8
MA_NCLEGEND-1-2
 10
170.663367
 20
9.354600
 11
171.721700
 21
9.354600
 40
3.175000
 41
0.992000
 50
0.000000
  7
STANDARD
 71
0
 72
1
  1
+0.0001/-0.0001
 73
0
  0
TEXT
  8
MA_NCLEGEND-1-2
 10
122.631967
 20
9.354600
 11
123.690300
 21
9.354600
 40
3.175000
 41
0.992000
 50
0.000000
  7
STANDARD
 71
0
 72
1
  1
3.9878
 73
0
  0
TEXT
  8
MA_NCLEGEND-1-2
 10
236.804967
 20
16.492000
 11
237.863300
 21
16.492000
 40
3.175000
 41
0.992000
 50
0.000000
  7
STANDARD
 71
0
 72
1
  1
72
 73
0
  0
TEXT
  8
MA_NCLEGEND-1-2
 10
210.820767
 20
16.492000
 11
211.879100
 21
16.492000
 40
3.175000
 41
0.992000
 50
0.000000
  7
STANDARD
 71
0
 72
1
  1
NON-PLATED
 73
0
  0
TEXT
  8
MA_NCLEGEND-1-2
 10
170.663367
 20
16.492000
 11
171.721700
 21
16.492000
 40
3.175000
 41
0.992000
 50
0.000000
  7
STANDARD
 71
0
 72
1
  1
+0.1/-0.1
 73
0
  0
TEXT
  8
MA_NCLEGEND-1-2
 10
122.631967
 20
16.492000
 11
123.690300
 21
16.492000
 40
3.175000
 41
0.992000
 50
0.000000
  7
STANDARD
 71
0
 72
1
  1
3.0
 73
0
  0
TEXT
  8
MA_NCLEGEND-1-2
 10
236.804967
 20
23.629400
 11
237.863300
 21
23.629400
 40
3.175000
 41
0.992000
 50
0.000000
  7
STANDARD
 71
0
 72
1
  1
70
 73
0
  0
TEXT
  8
MA_NCLEGEND-1-2
 10
210.820767
 20
23.629400
 11
211.879100
 21
23.629400
 40
3.175000
 41
0.992000
 50
0.000000
  7
STANDARD
 71
0
 72
1
  1
NON-PLATED
 73
0
  0
TEXT
  8
MA_NCLEGEND-1-2
 10
170.663367
 20
23.629400
 11
171.721700
 21
23.629400
 40
3.175000
 41
0.992000
 50
0.000000
  7
STANDARD
 71
0
 72
1
  1
+0.0001/-0.0001
 73
0
  0
TEXT
  8
MA_NCLEGEND-1-2
 10
122.631967
 20
23.629400
 11
123.690300
 21
23.629400
 40
3.175000
 41
0.992000
 50
0.000000
  7
STANDARD
 71
0
 72
1
  1
1.7018
 73
0
  0
TEXT
  8
MA_NCLEGEND-1-2
 10
236.804967
 20
30.766800
 11
237.863300
 21
30.766800
 40
3.175000
 41
0.992000
 50
0.000000
  7
STANDARD
 71
0
 72
1
  1
2
 73
0
  0
TEXT
  8
MA_NCLEGEND-1-2
 10
210.820767
 20
30.766800
 11
211.879100
 21
30.766800
 40
3.175000
 41
0.992000
 50
0.000000
  7
STANDARD
 71
0
 72
1
  1
NON-PLATED
 73
0
  0
TEXT
  8
MA_NCLEGEND-1-2
 10
170.663367
 20
30.766800
 11
171.721700
 21
30.766800
 40
3.175000
 41
0.992000
 50
0.000000
  7
STANDARD
 71
0
 72
1
  1
+0.0001/-0.0001
 73
0
  0
TEXT
  8
MA_NCLEGEND-1-2
 10
122.631967
 20
30.766800
 11
123.690300
 21
30.766800
 40
3.175000
 41
0.992000
 50
0.000000
  7
STANDARD
 71
0
 72
1
  1
0.8
 73
0
  0
TEXT
  8
MA_NCLEGEND-1-2
 10
236.804967
 20
37.904200
 11
237.863300
 21
37.904200
 40
3.175000
 41
0.992000
 50
0.000000
  7
STANDARD
 71
0
 72
1
  1
36
 73
0
  0
TEXT
  8
MA_NCLEGEND-1-2
 10
210.820767
 20
37.904200
 11
211.879100
 21
37.904200
 40
3.175000
 41
0.992000
 50
0.000000
  7
STANDARD
 71
0
 72
1
  1
PLATED
 73
0
  0
TEXT
  8
MA_NCLEGEND-1-2
 10
170.663367
 20
37.904200
 11
171.721700
 21
37.904200
 40
3.175000
 41
0.992000
 50
0.000000
  7
STANDARD
 71
0
 72
1
  1
+0.0001/-0.0001
 73
0
  0
TEXT
  8
MA_NCLEGEND-1-2
 10
122.631967
 20
37.904200
 11
123.690300
 21
37.904200
 40
3.175000
 41
0.992000
 50
0.000000
  7
STANDARD
 71
0
 72
1
  1
0.9
 73
0
  0
TEXT
  8
MA_NCLEGEND-1-2
 10
236.804967
 20
45.041600
 11
237.863300
 21
45.041600
 40
3.175000
 41
0.992000
 50
0.000000
  7
STANDARD
 71
0
 72
1
  1
36
 73
0
  0
TEXT
  8
MA_NCLEGEND-1-2
 10
210.820767
 20
45.041600
 11
211.879100
 21
45.041600
 40
3.175000
 41
0.992000
 50
0.000000
  7
STANDARD
 71
0
 72
1
  1
PLATED
 73
0
  0
TEXT
  8
MA_NCLEGEND-1-2
 10
170.663367
 20
45.041600
 11
171.721700
 21
45.041600
 40
3.175000
 41
0.992000
 50
0.000000
  7
STANDARD
 71
0
 72
1
  1
+0.0001/-0.0001
 73
0
  0
TEXT
  8
MA_NCLEGEND-1-2
 10
122.631967
 20
45.041600
 11
123.690300
 21
45.041600
 40
3.175000
 41
0.992000
 50
0.000000
  7
STANDARD
 71
0
 72
1
  1
0.9
 73
0
  0
TEXT
  8
MA_NCLEGEND-1-2
 10
236.804967
 20
52.179000
 11
237.863300
 21
52.179000
 40
3.175000
 41
0.992000
 50
0.000000
  7
STANDARD
 71
0
 72
1
  1
403
 73
0
  0
TEXT
  8
MA_NCLEGEND-1-2
 10
210.820767
 20
52.179000
 11
211.879100
 21
52.179000
 40
3.175000
 41
0.992000
 50
0.000000
  7
STANDARD
 71
0
 72
1
  1
PLATED
 73
0
  0
TEXT
  8
MA_NCLEGEND-1-2
 10
170.663367
 20
52.179000
 11
171.721700
 21
52.179000
 40
3.175000
 41
0.992000
 50
0.000000
  7
STANDARD
 71
0
 72
1
  1
+0.05/-0.05
 73
0
  0
TEXT
  8
MA_NCLEGEND-1-2
 10
122.631967
 20
52.179000
 11
123.690300
 21
52.179000
 40
3.175000
 41
0.992000
 50
0.000000
  7
STANDARD
 71
0
 72
1
  1
0.3
 73
0
  0
TEXT
  8
MA_NCLEGEND-1-2
 10
236.804967
 20
59.710100
 11
237.863300
 21
59.710100
 40
3.175000
 41
0.992000
 50
0.000000
  7
STANDARD
 71
0
 72
1
  1
QTY
 73
0
  0
TEXT
  8
MA_NCLEGEND-1-2
 10
210.820767
 20
59.710100
 11
211.879100
 21
59.710100
 40
3.175000
 41
0.992000
 50
0.000000
  7
STANDARD
 71
0
 72
1
  1
PLATED
 73
0
  0
TEXT
  8
MA_NCLEGEND-1-2
 10
170.663367
 20
59.710100
 11
171.721700
 21
59.710100
 40
3.175000
 41
0.992000
 50
0.000000
  7
STANDARD
 71
0
 72
1
  1
TOLERANCE
 73
0
  0
TEXT
  8
MA_NCLEGEND-1-2
 10
122.631967
 20
59.710100
 11
123.690300
 21
59.710100
 40
3.175000
 41
0.992000
 50
0.000000
  7
STANDARD
 71
0
 72
1
  1
SIZE
 73
0
  0
TEXT
  8
MA_NCLEGEND-1-2
 10
87.198967
 20
59.710100
 11
88.257300
 21
59.710100
 40
3.175000
 41
0.992000
 50
0.000000
  7
STANDARD
 71
0
 72
1
  1
FIGURE
 73
0
  0
TEXT
  8
MA_NCLEGEND-1-2
 10
161.214567
 20
66.847500
 11
162.272900
 21
66.847500
 40
3.175000
 41
0.992000
 50
0.000000
  7
STANDARD
 71
0
 72
1
  1
ALL UNITS ARE IN MILLIMETERS
 73
0
  0
TEXT
  8
MA_NCLEGEND-1-2
 10
161.214567
 20
73.347500
 11
162.272900
 21
73.347500
 40
3.175000
 41
0.992000
 50
0.000000
  7
STANDARD
 71
0
 72
1
  1
DRILL CHART: TOP to BOTTOM
 73
0
  0
TEXT
  8
BG_DIMENSION
 10
185.497500
 20
-118.936400
 11
0.000000
 21
0.000000
 40
0.889000
 41
0.826772
 50
0.000000
  7
STANDARD
 71
0
 72
0
  1
unit:mm
 73
0
  0
INSERT
  8
MA_NCLEGEND-1-2
  2
FIGURE_OBLONG
 10
88.257300
 20
-17.607500
 41
2.200000
 42
0.600000
 50
90.000000
  0
TEXT
  8
MA_NCLEGEND-1-2
 10
88.057300
 20
-17.757500
 11
88.257300
 21
-17.607500
 40
0.300000
 41
1.000000
 50
0.000000
  7
STANDARD
 71
0
 72
1
  1
OD
 73
2
  0
INSERT
  8
MA_NCLEGEND-1-2
  2
FIGURE_OBLONG
 10
88.257300
 20
-10.470100
 41
1.500000
 42
0.700000
 50
90.000000
  0
TEXT
  8
MA_NCLEGEND-1-2
 10
88.023967
 20
-10.645100
 11
88.257300
 21
-10.470100
 40
0.350000
 41
1.000000
 50
0.000000
  7
STANDARD
 71
0
 72
1
  1
OC
 73
2
  0
INSERT
  8
MA_NCLEGEND-1-2
  2
FIGURE_OBLONG
 10
88.257300
 20
-3.332700
 41
1.350000
 42
0.700000
 50
0.000000
  0
TEXT
  8
MA_NCLEGEND-1-2
 10
88.023967
 20
-3.507700
 11
88.257300
 21
-3.332700
 40
0.350000
 41
1.000000
 50
0.000000
  7
STANDARD
 71
0
 72
1
  1
OB
 73
2
  0
INSERT
  8
MA_NCLEGEND-1-2
  2
FIGURE_OBLONG
 10
88.257300
 20
3.804700
 41
1.300000
 42
0.700000
 50
90.000000
  0
TEXT
  8
MA_NCLEGEND-1-2
 10
88.023967
 20
3.629700
 11
88.257300
 21
3.804700
 40
0.350000
 41
1.000000
 50
0.000000
  7
STANDARD
 71
0
 72
1
  1
OA
 73
2
  0
INSERT
  8
MA_NCLEGEND-1-2
  2
FIGURE_TRI
 10
88.257300
 20
10.942100
 41
3.987800
 42
3.987800
 50
0.000000
  0
INSERT
  8
MA_NCLEGEND-1-2
  2
FIGURE_DIAMOND
 10
88.257300
 20
18.079500
 41
3.000000
 42
3.000000
 50
0.000000
  0
INSERT
  8
MA_NCLEGEND-1-2
  2
FIGURE_OCT
 10
88.257300
 20
25.216900
 41
1.701800
 42
1.701800
 50
0.000000
  0
INSERT
  8
MA_NCLEGEND-1-2
  2
FIGURE_HEX
 10
88.257300
 20
32.354300
 41
0.800000
 42
0.800000
 50
90.000000
  0
INSERT
  8
MA_NCLEGEND-1-2
  2
FIGURE_HEX
 10
88.257300
 20
39.491700
 41
0.900000
 42
0.900000
 50
0.000000
  0
INSERT
  8
MA_NCLEGEND-1-2
  2
FIGURE_SQUARE
 10
88.257300
 20
46.629100
 41
0.900000
 42
0.900000
 50
0.000000
  0
INSERT
  8
MA_NCLEGEND-1-2
  2
FIGURE_CROSS
 10
88.257300
 20
53.766500
 41
0.300000
 42
0.300000
 50
0.000000
  0
ENDSEC
  0
EOF
